<svg xmlns="http://www.w3.org/2000/svg" viewBox="6 6 52 52"><path fill="#faefde" d="M7,23H57a0,0,0,0,1,0,0V51a6,6,0,0,1-6,6H13a6,6,0,0,1-6-6V23A0,0,0,0,1,7,23Z"></path><path fill="#efd8be" d="M6.89,51H57a0,0,0,0,1,0,0v1.23a5,5,0,0,1-5,5H11.89a5,5,0,0,1-5-5V51A0,0,0,0,1,6.89,51Z"></path><path fill="#cda1a7" d="M13,7H51a6,6,0,0,1,6,6V23a0,0,0,0,1,0,0H7a0,0,0,0,1,0,0V13A6,6,0,0,1,13,7Z"></path><path fill="#bbdef9" d="M45 11H53V17H45z"></path><path fill="#ffeb9b" d="M32 19A13 13 0 1 0 32 45A13 13 0 1 0 32 19Z"></path><path fill="#bbdef9" d="M32 22A10 10 0 1 0 32 42A10 10 0 1 0 32 22Z"></path><path fill="#d2edff" d="M32 27A5 5 0 1 0 32 37A5 5 0 1 0 32 27Z"></path><path fill="#f3f3f3" d="M30 27A3 3 0 1 0 30 33 3 3 0 1 0 30 27zM35.5 34A1.5 1.5 0 1 0 35.5 37 1.5 1.5 0 1 0 35.5 34z"></path><path fill="#8d6c9f" d="M51,6H13a7,7,0,0,0-7,7V51a7,7,0,0,0,7,7H51a7,7,0,0,0,7-7V13A7,7,0,0,0,51,6ZM13,8h1v3a1,1,0,0,0,2,0V8H51a5,5,0,0,1,5,5v9H42a.78.78,0,0,1-.25,0,14,14,0,0,0-19.53,0A1.27,1.27,0,0,1,22,22H8V13A5,5,0,0,1,13,8ZM32,20A12,12,0,1,1,20,32,12,12,0,0,1,32,20ZM51,56H13a5,5,0,0,1-5-5V24H20.53a14,14,0,1,0,22.95,0H56V51A5,5,0,0,1,51,56Z"></path><path fill="#8d6c9f" d="M32 42A10 10 0 1 0 22 32 10 10 0 0 0 32 42zm0-18a8 8 0 1 1-8 8A8 8 0 0 1 32 24zM47 18h4a3 3 0 0 0 3-3V13a3 3 0 0 0-3-3H47a3 3 0 0 0-3 3v2A3 3 0 0 0 47 18zm-1-5a1 1 0 0 1 1-1h4a1 1 0 0 1 1 1v2a1 1 0 0 1-1 1H47a1 1 0 0 1-1-1zM12 49a1 1 0 0 0-1 1v2a1 1 0 0 0 2 0V50A1 1 0 0 0 12 49zM17 49a1 1 0 0 0-1 1v2a1 1 0 0 0 2 0V50A1 1 0 0 0 17 49zM22 49a1 1 0 0 0-1 1v2a1 1 0 0 0 2 0V50A1 1 0 0 0 22 49zM27 49a1 1 0 0 0-1 1v2a1 1 0 0 0 2 0V50A1 1 0 0 0 27 49zM37 49a1 1 0 0 0-1 1v2a1 1 0 0 0 2 0V50A1 1 0 0 0 37 49zM32 49a1 1 0 0 0-1 1v2a1 1 0 0 0 2 0V50A1 1 0 0 0 32 49zM42 49a1 1 0 0 0-1 1v2a1 1 0 0 0 2 0V50A1 1 0 0 0 42 49zM47 49a1 1 0 0 0-1 1v2a1 1 0 0 0 2 0V50A1 1 0 0 0 47 49zM52 49a1 1 0 0 0-1 1v2a1 1 0 0 0 2 0V50A1 1 0 0 0 52 49zM15 20a1 1 0 0 0 1-1V15a1 1 0 0 0-2 0v4A1 1 0 0 0 15 20z"></path></svg>