<svg id="svg" version="1.1" xmlns="http://www.w3.org/2000/svg" xmlns:xlink="http://www.w3.org/1999/xlink" width="400" height="400" viewBox="0, 0, 400,400"><g id="svgg"><path id="path0" d="M340.200 30.400 C 340.064 30.620,339.513 30.800,338.976 30.800 C 338.439 30.800,338.000 30.980,338.000 31.200 C 338.000 31.420,337.640 31.600,337.200 31.600 C 336.760 31.600,336.400 31.780,336.400 32.000 C 336.400 32.220,336.166 32.400,335.880 32.400 C 335.144 32.400,333.207 33.341,333.203 33.700 C 333.201 33.865,332.840 34.000,332.400 34.000 C 331.960 34.000,331.600 34.180,331.600 34.400 C 331.600 34.620,331.259 34.800,330.843 34.800 C 329.762 34.800,329.494 35.873,330.041 38.007 C 331.033 41.878,330.674 42.477,323.510 48.904 C 318.754 53.171,310.400 64.209,310.400 66.227 C 310.400 66.327,310.022 67.262,309.560 68.304 C 308.168 71.447,308.071 71.703,307.248 74.400 C 306.449 77.023,306.094 78.386,305.163 82.400 C 304.502 85.247,304.465 99.059,305.110 101.800 C 305.369 102.900,305.679 104.295,305.798 104.900 C 305.918 105.505,306.196 106.000,306.418 106.000 C 307.175 106.000,377.318 35.558,376.939 35.179 C 375.389 33.629,360.417 33.038,353.062 34.236 C 347.110 35.206,344.865 34.544,343.362 31.377 C 342.701 29.984,340.817 29.402,340.200 30.400 M350.613 79.587 C 328.148 102.053,315.253 115.228,315.619 115.338 C 320.158 116.704,334.973 117.159,339.600 116.075 C 345.879 114.603,346.934 114.303,350.400 112.998 C 352.324 112.274,358.867 109.159,359.200 108.809 C 359.310 108.693,359.859 108.363,360.420 108.075 C 363.934 106.269,374.056 97.076,375.808 94.100 C 376.228 93.385,376.714 92.800,376.886 92.800 C 377.059 92.800,377.200 92.589,377.200 92.331 C 377.200 92.074,377.485 91.548,377.833 91.163 C 381.535 87.072,386.171 74.701,387.412 65.600 C 388.271 59.296,387.786 48.334,386.492 44.837 C 386.228 44.123,381.392 48.806,350.613 79.587 M212.200 283.571 C 207.907 284.136,206.254 284.738,206.870 285.513 C 209.513 288.840,277.203 355.876,277.520 355.480 C 279.246 353.329,279.540 337.059,277.984 329.800 C 277.748 328.700,277.456 327.213,277.334 326.496 C 277.212 325.779,276.951 325.094,276.756 324.973 C 276.560 324.852,276.400 324.401,276.400 323.971 C 276.400 323.541,276.241 322.877,276.047 322.495 C 275.853 322.113,275.094 320.360,274.360 318.600 C 269.808 307.679,260.701 297.168,250.888 291.511 C 245.267 288.270,239.530 285.929,234.400 284.781 C 233.190 284.511,231.570 284.121,230.800 283.916 C 228.952 283.423,215.258 283.169,212.200 283.571 M196.865 296.700 C 196.610 298.185,196.221 300.694,196.001 302.277 C 194.462 313.321,198.547 330.418,204.833 339.246 C 205.255 339.839,205.600 340.521,205.600 340.762 C 205.600 341.003,205.741 341.200,205.914 341.200 C 206.086 341.200,206.521 341.695,206.880 342.300 C 211.136 349.476,224.021 359.351,233.600 362.780 C 234.370 363.055,235.360 363.429,235.800 363.610 C 236.729 363.992,242.318 365.329,245.800 366.002 C 250.335 366.878,266.888 366.072,268.041 364.919 C 268.433 364.527,198.397 294.000,197.615 294.000 C 197.457 294.000,197.120 295.215,196.865 296.700 " stroke="none" fill="#3D8F51" fill-rule="evenodd"></path><path id="path1" d="M354.400 21.200 C 354.400 21.422,353.333 21.600,352.000 21.600 C 350.667 21.600,349.600 21.778,349.600 22.000 C 349.600 22.220,348.878 22.400,347.995 22.400 C 345.833 22.400,344.926 22.934,342.872 25.414 C 342.130 26.310,342.040 29.240,342.734 29.940 C 343.100 30.310,343.725 31.114,344.122 31.726 C 345.942 34.531,347.280 34.738,355.200 33.438 C 362.353 32.264,377.308 33.323,377.881 35.043 C 378.055 35.566,306.878 106.800,306.182 106.800 C 304.123 106.800,303.368 86.895,305.158 79.800 C 306.183 75.736,306.731 73.853,307.309 72.400 C 307.528 71.850,307.845 71.040,308.013 70.600 C 311.161 62.362,317.469 53.190,323.454 48.149 C 329.927 42.697,330.022 42.530,329.418 37.608 C 329.082 34.872,328.496 34.035,326.900 34.013 C 326.405 34.006,326.000 33.820,326.000 33.600 C 326.000 33.380,325.190 33.200,324.200 33.200 C 323.210 33.200,322.400 33.380,322.400 33.600 C 322.400 33.820,322.040 34.000,321.600 34.000 C 321.160 34.000,320.800 34.180,320.800 34.400 C 320.800 34.620,320.548 34.800,320.241 34.800 C 319.933 34.800,318.762 35.700,317.639 36.800 C 316.515 37.900,315.509 38.800,315.403 38.800 C 314.830 38.800,311.802 41.742,309.652 44.388 C 308.854 45.371,307.705 46.703,307.100 47.347 C 306.495 47.991,306.000 48.722,306.000 48.971 C 306.000 49.220,305.640 49.683,305.200 50.000 C 304.760 50.317,304.400 50.857,304.400 51.200 C 304.400 51.543,304.040 52.083,303.600 52.400 C 303.160 52.717,302.800 53.214,302.800 53.505 C 302.800 53.796,302.440 54.420,302.000 54.892 C 301.560 55.364,301.200 55.987,301.200 56.275 C 301.200 56.564,301.020 56.800,300.800 56.800 C 300.580 56.800,300.400 57.160,300.400 57.600 C 300.400 58.040,300.254 58.400,300.075 58.400 C 299.896 58.400,299.502 59.030,299.200 59.800 C 298.898 60.570,298.504 61.200,298.325 61.200 C 298.146 61.200,298.000 61.549,298.000 61.976 C 298.000 62.403,297.820 62.864,297.600 63.000 C 297.380 63.136,297.200 63.687,297.200 64.224 C 297.200 64.761,297.020 65.200,296.800 65.200 C 296.580 65.200,296.400 65.560,296.400 66.000 C 296.400 66.440,296.220 66.800,296.000 66.800 C 295.780 66.800,295.600 67.340,295.600 68.000 C 295.600 68.660,295.420 69.200,295.200 69.200 C 294.980 69.200,294.800 69.729,294.800 70.376 C 294.800 71.023,294.620 71.664,294.400 71.800 C 294.180 71.936,294.000 72.656,294.000 73.400 C 294.000 74.144,293.820 74.864,293.600 75.000 C 293.380 75.136,293.200 75.921,293.200 76.744 C 293.200 77.567,293.038 78.411,292.839 78.620 C 291.155 80.392,291.911 109.600,293.640 109.600 C 293.838 109.600,294.000 110.219,294.000 110.976 C 294.000 111.733,294.180 112.464,294.400 112.600 C 294.620 112.736,294.800 113.377,294.800 114.024 C 294.800 114.671,294.980 115.200,295.200 115.200 C 296.235 115.200,295.056 116.566,287.800 123.775 C 283.510 128.036,280.000 131.638,280.000 131.778 C 280.000 131.919,279.640 132.420,279.200 132.892 C 278.328 133.828,277.988 139.200,278.800 139.200 C 279.020 139.200,279.200 139.378,279.200 139.595 C 279.200 140.204,280.515 141.600,281.089 141.600 C 281.370 141.600,281.600 141.780,281.600 142.000 C 281.600 142.236,283.015 142.400,285.046 142.400 L 288.491 142.400 296.624 134.200 C 304.165 126.597,304.860 126.000,306.178 126.000 C 306.960 126.000,307.600 126.180,307.600 126.400 C 307.600 126.620,308.129 126.800,308.776 126.800 C 309.423 126.800,310.064 126.980,310.200 127.200 C 310.336 127.420,311.157 127.600,312.024 127.600 C 312.891 127.600,313.600 127.780,313.600 128.000 C 313.600 128.220,314.500 128.400,315.600 128.400 C 316.700 128.400,317.600 128.580,317.600 128.800 C 317.600 129.042,319.333 129.200,322.000 129.200 C 324.667 129.200,326.400 129.358,326.400 129.600 C 326.400 129.826,327.533 130.000,329.000 130.000 C 330.467 130.000,331.600 129.826,331.600 129.600 C 331.600 129.359,333.259 129.200,335.776 129.200 C 338.129 129.200,340.061 129.025,340.200 128.800 C 340.336 128.580,341.427 128.400,342.624 128.400 C 343.821 128.400,344.800 128.220,344.800 128.000 C 344.800 127.780,345.520 127.600,346.400 127.600 C 347.280 127.600,348.000 127.420,348.000 127.200 C 348.000 126.980,348.630 126.800,349.400 126.800 C 350.170 126.800,350.800 126.620,350.800 126.400 C 350.800 126.180,351.329 126.000,351.976 126.000 C 352.623 126.000,353.254 125.836,353.378 125.635 C 353.503 125.434,354.322 125.148,355.200 125.000 C 356.078 124.852,356.897 124.566,357.022 124.365 C 357.146 124.164,357.597 124.000,358.024 124.000 C 358.451 124.000,358.800 123.820,358.800 123.600 C 358.800 123.380,359.160 123.200,359.600 123.200 C 360.040 123.200,360.400 123.020,360.400 122.800 C 360.400 122.580,360.760 122.400,361.200 122.400 C 361.640 122.400,362.000 122.220,362.000 122.000 C 362.000 121.780,362.360 121.600,362.800 121.600 C 363.240 121.600,363.600 121.420,363.600 121.200 C 363.600 120.980,363.960 120.800,364.400 120.800 C 364.840 120.800,365.200 120.620,365.200 120.400 C 365.200 120.180,365.436 120.000,365.725 120.000 C 366.013 120.000,366.636 119.640,367.108 119.200 C 367.580 118.760,368.204 118.400,368.495 118.400 C 368.786 118.400,369.283 118.040,369.600 117.600 C 369.917 117.160,370.380 116.800,370.629 116.800 C 370.878 116.800,371.646 116.260,372.337 115.600 C 373.028 114.940,373.682 114.400,373.791 114.400 C 374.312 114.400,385.600 103.277,385.600 102.764 C 385.600 102.560,386.140 101.828,386.800 101.137 C 387.460 100.446,388.000 99.721,388.000 99.524 C 388.000 99.327,388.360 98.780,388.800 98.308 C 389.240 97.836,389.600 97.213,389.600 96.925 C 389.600 96.636,389.747 96.400,389.926 96.400 C 390.324 96.400,391.600 93.799,391.600 92.986 C 391.600 92.664,391.780 92.400,392.000 92.400 C 392.220 92.400,392.400 92.130,392.400 91.800 C 392.400 91.470,392.580 91.200,392.800 91.200 C 393.020 91.200,393.200 90.840,393.200 90.400 C 393.200 89.960,393.380 89.600,393.600 89.600 C 393.820 89.600,394.000 89.240,394.000 88.800 C 394.000 88.360,394.180 88.000,394.400 88.000 C 394.620 88.000,394.800 87.651,394.800 87.224 C 394.800 86.797,394.980 86.336,395.200 86.200 C 395.420 86.064,395.600 85.513,395.600 84.976 C 395.600 84.439,395.780 84.000,396.000 84.000 C 396.220 84.000,396.400 83.460,396.400 82.800 C 396.400 82.140,396.580 81.600,396.800 81.600 C 397.020 81.600,397.200 81.060,397.200 80.400 C 397.200 79.740,397.380 79.200,397.600 79.200 C 397.820 79.200,398.000 78.660,398.000 78.000 C 398.000 77.340,398.180 76.800,398.400 76.800 C 398.620 76.800,398.800 76.026,398.800 75.080 C 398.800 74.134,399.025 73.135,399.300 72.860 C 399.682 72.478,399.800 68.897,399.800 57.713 C 399.800 46.351,399.688 43.029,399.300 42.900 C 399.013 42.804,398.800 42.064,398.800 41.167 C 398.800 40.305,398.620 39.600,398.400 39.600 C 398.180 39.600,398.000 39.060,398.000 38.400 C 398.000 37.740,397.820 37.200,397.600 37.200 C 397.380 37.200,397.200 36.581,397.200 35.824 C 397.200 35.067,397.020 34.336,396.800 34.200 C 396.580 34.064,396.400 33.603,396.400 33.176 C 396.400 32.749,396.220 32.400,396.000 32.400 C 395.780 32.400,395.600 32.122,395.600 31.782 C 395.600 31.442,395.195 30.744,394.700 30.232 C 394.205 29.720,393.491 28.963,393.113 28.550 C 390.965 26.204,388.759 24.800,387.220 24.800 C 386.769 24.800,386.400 24.620,386.400 24.400 C 386.400 24.180,385.770 24.000,385.000 24.000 C 384.230 24.000,383.600 23.820,383.600 23.600 C 383.600 23.380,382.970 23.200,382.200 23.200 C 381.430 23.200,380.800 23.020,380.800 22.800 C 380.800 22.580,379.900 22.400,378.800 22.400 C 377.700 22.400,376.800 22.220,376.800 22.000 C 376.800 21.778,375.733 21.600,374.400 21.600 C 373.067 21.600,372.000 21.422,372.000 21.200 C 372.000 20.945,368.800 20.800,363.200 20.800 C 357.600 20.800,354.400 20.945,354.400 21.200 M215.200 34.400 C 215.200 34.620,214.221 34.800,213.024 34.800 C 211.827 34.800,210.736 34.980,210.600 35.200 C 210.464 35.420,209.834 35.600,209.200 35.600 C 208.566 35.600,207.936 35.780,207.800 36.000 C 207.664 36.220,207.203 36.400,206.776 36.400 C 206.349 36.400,206.000 36.580,206.000 36.800 C 206.000 37.020,205.595 37.204,205.100 37.209 C 204.605 37.214,203.750 37.570,203.200 38.000 C 202.650 38.430,201.975 38.786,201.700 38.791 C 201.425 38.796,201.200 38.980,201.200 39.200 C 201.200 39.420,200.925 39.600,200.589 39.600 C 199.483 39.600,193.145 45.802,192.391 47.621 C 192.123 48.270,191.745 48.800,191.551 48.800 C 191.358 48.800,191.200 49.160,191.200 49.600 C 191.200 50.040,191.020 50.400,190.800 50.400 C 190.580 50.400,190.400 50.760,190.400 51.200 C 190.400 51.640,190.220 52.000,190.000 52.000 C 189.780 52.000,189.600 52.540,189.600 53.200 C 189.600 53.860,189.420 54.400,189.200 54.400 C 188.980 54.400,188.800 55.120,188.800 56.000 C 188.800 56.880,188.620 57.600,188.400 57.600 C 188.152 57.600,188.000 59.800,188.000 63.400 C 188.000 67.000,188.152 69.200,188.400 69.200 C 188.620 69.200,188.800 69.920,188.800 70.800 C 188.800 71.680,188.980 72.400,189.200 72.400 C 189.420 72.400,189.600 72.850,189.600 73.400 C 189.600 73.950,189.780 74.400,190.000 74.400 C 190.220 74.400,190.400 74.760,190.400 75.200 C 190.400 75.640,190.559 76.000,190.754 76.000 C 190.949 76.000,191.418 76.652,191.797 77.450 C 192.616 79.176,197.326 84.000,198.193 84.000 C 198.527 84.000,198.800 84.147,198.800 84.326 C 198.800 84.792,201.931 86.400,202.838 86.400 C 203.257 86.400,203.600 86.580,203.600 86.800 C 203.600 87.020,204.140 87.200,204.800 87.200 C 205.460 87.200,206.000 87.380,206.000 87.600 C 206.000 87.820,206.979 88.000,208.176 88.000 C 209.373 88.000,210.464 88.180,210.600 88.400 C 210.736 88.620,211.647 88.800,212.624 88.800 C 213.601 88.800,214.400 88.620,214.400 88.400 C 214.400 88.178,215.467 88.000,216.800 88.000 C 218.133 88.000,219.200 87.822,219.200 87.600 C 219.200 87.380,219.543 87.200,219.962 87.200 C 222.437 87.200,226.800 83.559,226.800 81.493 C 226.800 80.760,227.025 79.922,227.300 79.630 C 227.700 79.206,227.700 79.063,227.300 78.917 C 227.025 78.816,226.800 78.163,226.800 77.467 C 226.799 76.180,225.324 74.000,224.453 74.000 C 224.204 74.000,224.000 73.820,224.000 73.600 C 224.000 73.367,222.667 73.200,220.800 73.200 C 218.933 73.200,217.600 73.367,217.600 73.600 C 217.600 73.820,217.255 74.000,216.833 74.000 C 216.412 74.000,215.996 74.213,215.909 74.474 C 215.697 75.110,209.097 75.090,208.884 74.452 C 208.801 74.204,208.405 74.000,208.003 74.000 C 206.623 74.000,202.000 68.921,202.000 67.405 C 202.000 67.072,201.820 66.800,201.600 66.800 C 201.363 66.800,201.200 65.333,201.200 63.200 C 201.200 61.067,201.363 59.600,201.600 59.600 C 201.820 59.600,202.000 59.238,202.000 58.795 C 202.000 56.957,207.489 50.400,209.027 50.400 C 209.342 50.400,209.600 50.220,209.600 50.000 C 209.600 49.780,209.960 49.600,210.400 49.600 C 210.840 49.600,211.200 49.420,211.200 49.200 C 211.200 48.980,211.639 48.800,212.176 48.800 C 212.713 48.800,213.264 48.620,213.400 48.400 C 213.536 48.180,214.357 48.000,215.224 48.000 C 216.091 48.000,216.800 47.820,216.800 47.600 C 216.800 47.378,217.867 47.200,219.200 47.200 C 220.533 47.200,221.600 47.378,221.600 47.600 C 221.600 47.820,222.500 48.000,223.600 48.000 C 224.700 48.000,225.600 48.180,225.600 48.400 C 225.600 48.620,226.050 48.800,226.600 48.800 C 227.150 48.800,227.600 48.980,227.600 49.200 C 227.600 49.420,227.960 49.600,228.400 49.600 C 228.840 49.600,229.200 49.780,229.200 50.000 C 229.200 50.220,229.520 50.400,229.912 50.400 C 230.303 50.400,230.883 50.760,231.200 51.200 C 231.517 51.640,232.021 52.000,232.319 52.000 C 233.066 52.000,237.833 56.974,238.474 58.422 C 238.761 59.070,239.131 59.600,239.298 59.600 C 239.464 59.600,239.600 59.960,239.600 60.400 C 239.600 60.840,239.780 61.200,240.000 61.200 C 240.220 61.200,240.400 61.560,240.400 62.000 C 240.400 62.440,240.560 62.800,240.756 62.800 C 240.952 62.800,241.203 63.385,241.313 64.100 C 241.423 64.815,241.730 66.570,241.994 68.000 C 242.667 71.635,242.014 78.410,240.753 80.895 C 240.559 81.277,240.400 81.952,240.400 82.395 C 240.400 82.838,240.220 83.200,240.000 83.200 C 239.780 83.200,239.600 83.560,239.600 84.000 C 239.600 84.440,239.420 84.800,239.200 84.800 C 238.980 84.800,238.800 85.160,238.800 85.600 C 238.800 86.040,238.620 86.400,238.400 86.400 C 238.180 86.400,238.000 86.760,238.000 87.200 C 238.000 87.640,237.820 88.000,237.600 88.000 C 237.380 88.000,237.200 88.320,237.200 88.712 C 237.200 89.103,236.840 89.683,236.400 90.000 C 235.960 90.317,235.598 90.762,235.597 90.988 C 235.595 91.215,234.702 92.300,233.613 93.400 C 232.525 94.500,231.620 95.580,231.603 95.800 C 231.585 96.020,230.746 96.920,229.738 97.800 C 228.730 98.680,227.112 100.165,226.142 101.100 C 225.172 102.035,224.230 102.800,224.049 102.800 C 223.867 102.800,223.154 103.340,222.463 104.000 C 221.772 104.660,220.975 105.200,220.692 105.200 C 220.409 105.200,219.917 105.560,219.600 106.000 C 219.283 106.440,218.703 106.800,218.312 106.800 C 217.920 106.800,217.600 106.980,217.600 107.200 C 217.600 107.420,217.255 107.600,216.833 107.600 C 216.412 107.600,216.007 107.735,215.933 107.900 C 215.860 108.065,214.720 108.716,213.400 109.346 C 212.080 109.976,210.687 110.651,210.305 110.846 C 209.923 111.041,209.338 111.200,209.005 111.200 C 208.672 111.200,208.400 111.380,208.400 111.600 C 208.400 111.820,208.040 112.000,207.600 112.000 C 207.160 112.000,206.800 112.180,206.800 112.400 C 206.800 112.620,206.260 112.800,205.600 112.800 C 204.940 112.800,204.400 112.980,204.400 113.200 C 204.400 113.420,203.860 113.600,203.200 113.600 C 202.540 113.600,202.000 113.780,202.000 114.000 C 202.000 114.220,201.280 114.400,200.400 114.400 C 199.520 114.400,198.800 114.580,198.800 114.800 C 198.800 115.020,198.001 115.200,197.024 115.200 C 196.047 115.200,195.136 115.380,195.000 115.600 C 194.686 116.107,181.906 116.140,181.380 115.635 C 181.171 115.435,180.010 115.173,178.800 115.053 C 175.094 114.687,173.205 114.332,172.974 113.958 C 172.852 113.761,172.133 113.600,171.376 113.600 C 170.619 113.600,170.000 113.420,170.000 113.200 C 170.000 112.980,169.471 112.800,168.824 112.800 C 168.177 112.800,167.536 112.620,167.400 112.400 C 167.264 112.180,166.724 112.000,166.200 112.000 C 165.676 112.000,165.136 111.820,165.000 111.600 C 164.864 111.380,164.313 111.200,163.776 111.200 C 163.239 111.200,162.800 111.020,162.800 110.800 C 162.800 110.580,162.260 110.400,161.600 110.400 C 160.940 110.400,160.400 110.258,160.400 110.085 C 160.400 109.912,159.230 109.417,157.800 108.985 C 156.370 108.553,155.200 108.065,155.200 107.900 C 155.200 107.735,154.750 107.600,154.200 107.600 C 153.650 107.600,153.200 107.420,153.200 107.200 C 153.200 106.980,152.750 106.800,152.200 106.800 C 151.650 106.800,151.200 106.620,151.200 106.400 C 151.200 106.180,150.840 106.000,150.400 106.000 C 149.960 106.000,149.600 105.820,149.600 105.600 C 149.600 105.380,149.240 105.200,148.800 105.200 C 148.360 105.200,148.000 105.020,148.000 104.800 C 148.000 104.580,147.640 104.400,147.200 104.400 C 146.760 104.400,146.400 104.220,146.400 104.000 C 146.400 103.769,145.133 103.600,143.400 103.600 C 141.750 103.600,140.400 103.736,140.400 103.902 C 140.400 104.069,139.860 104.444,139.200 104.736 C 138.469 105.059,138.000 105.567,138.000 106.034 C 138.000 106.455,137.820 106.800,137.600 106.800 C 137.380 106.800,137.200 107.340,137.200 108.000 C 137.200 108.660,137.020 109.200,136.800 109.200 C 136.580 109.200,136.400 109.470,136.400 109.800 C 136.400 110.130,136.580 110.400,136.800 110.400 C 137.020 110.400,137.200 111.036,137.200 111.813 C 137.200 113.313,139.352 116.000,140.553 116.000 C 140.872 116.000,141.193 116.136,141.267 116.302 C 141.340 116.468,142.660 117.207,144.200 117.944 C 145.740 118.681,147.313 119.445,147.695 119.642 C 148.077 119.839,148.662 120.000,148.995 120.000 C 149.328 120.000,149.600 120.180,149.600 120.400 C 149.600 120.620,149.960 120.800,150.400 120.800 C 150.840 120.800,151.200 120.980,151.200 121.200 C 151.200 121.420,151.740 121.600,152.400 121.600 C 153.060 121.600,153.600 121.780,153.600 122.000 C 153.600 122.220,153.949 122.400,154.376 122.400 C 154.803 122.400,155.264 122.580,155.400 122.800 C 155.536 123.020,155.999 123.200,156.429 123.200 C 156.859 123.200,157.523 123.374,157.905 123.587 C 159.064 124.233,162.366 125.200,163.414 125.200 C 163.956 125.200,164.400 125.380,164.400 125.600 C 164.400 125.820,165.120 126.000,166.000 126.000 C 166.880 126.000,167.600 126.180,167.600 126.400 C 167.600 126.620,168.320 126.800,169.200 126.800 C 170.080 126.800,170.800 126.980,170.800 127.200 C 170.800 127.420,171.700 127.600,172.800 127.600 C 173.900 127.600,174.800 127.780,174.800 128.000 C 174.800 128.226,175.933 128.400,177.400 128.400 C 178.867 128.400,180.000 128.574,180.000 128.800 C 180.000 129.053,182.867 129.200,187.800 129.200 C 192.733 129.200,195.600 129.053,195.600 128.800 C 195.600 128.574,196.733 128.400,198.200 128.400 C 199.667 128.400,200.800 128.226,200.800 128.000 C 200.800 127.780,201.610 127.600,202.600 127.600 C 203.590 127.600,204.400 127.420,204.400 127.200 C 204.400 126.980,205.030 126.800,205.800 126.800 C 206.570 126.800,207.200 126.620,207.200 126.400 C 207.200 126.180,207.740 126.000,208.400 126.000 C 209.060 126.000,209.600 125.820,209.600 125.600 C 209.600 125.380,210.068 125.200,210.640 125.200 C 211.211 125.200,212.291 124.930,213.040 124.600 C 213.788 124.270,214.985 123.749,215.700 123.442 C 218.507 122.238,220.686 121.148,222.600 119.991 C 223.700 119.326,224.870 118.663,225.200 118.519 C 225.530 118.374,226.091 117.928,226.447 117.528 C 226.803 117.127,227.348 116.800,227.659 116.800 C 227.969 116.800,228.483 116.440,228.800 116.000 C 229.117 115.560,229.625 115.200,229.928 115.200 C 230.231 115.200,230.983 114.660,231.600 114.000 C 232.217 113.340,232.923 112.800,233.169 112.800 C 234.123 112.800,245.600 101.195,245.600 100.231 C 245.600 99.981,245.960 99.517,246.400 99.200 C 246.840 98.883,247.200 98.343,247.200 98.000 C 247.200 97.657,247.560 97.117,248.000 96.800 C 248.440 96.483,248.800 95.903,248.800 95.512 C 248.800 95.120,248.936 94.800,249.103 94.800 C 249.270 94.800,249.855 93.815,250.403 92.611 C 250.951 91.407,251.535 90.417,251.700 90.411 C 251.865 90.405,252.000 90.040,252.000 89.600 C 252.000 89.160,252.180 88.800,252.400 88.800 C 252.620 88.800,252.800 88.361,252.800 87.824 C 252.800 87.287,252.980 86.736,253.200 86.600 C 253.420 86.464,253.600 85.823,253.600 85.176 C 253.600 84.529,253.780 84.000,254.000 84.000 C 254.220 84.000,254.400 83.280,254.400 82.400 C 254.400 81.520,254.580 80.800,254.800 80.800 C 255.027 80.800,255.200 79.627,255.200 78.080 C 255.200 76.584,255.396 75.164,255.635 74.925 C 255.910 74.650,255.986 73.488,255.841 71.745 C 255.715 70.235,255.505 67.740,255.374 66.200 C 255.243 64.660,254.970 63.229,254.768 63.020 C 254.565 62.811,254.400 62.057,254.400 61.344 C 254.400 60.631,254.220 59.936,254.000 59.800 C 253.780 59.664,253.600 59.113,253.600 58.576 C 253.600 58.039,253.420 57.600,253.200 57.600 C 252.980 57.600,252.800 57.060,252.800 56.400 C 252.800 55.740,252.620 55.200,252.400 55.200 C 252.180 55.200,252.000 54.840,252.000 54.400 C 252.000 53.960,251.820 53.600,251.600 53.600 C 251.380 53.600,251.200 53.240,251.200 52.800 C 251.200 52.360,251.050 52.000,250.868 52.000 C 250.685 52.000,250.281 51.505,249.970 50.900 C 249.660 50.295,249.089 49.509,248.703 49.153 C 248.316 48.797,248.000 48.318,248.000 48.088 C 248.000 47.362,242.378 42.000,241.617 42.000 C 241.388 42.000,241.200 41.850,241.200 41.668 C 241.200 41.485,240.705 41.080,240.100 40.768 C 239.495 40.455,238.651 39.885,238.225 39.500 C 237.798 39.115,237.213 38.800,236.925 38.800 C 236.636 38.800,236.400 38.620,236.400 38.400 C 236.400 38.180,236.040 38.000,235.600 38.000 C 235.160 38.000,234.800 37.820,234.800 37.600 C 234.800 37.380,234.361 37.200,233.824 37.200 C 233.287 37.200,232.736 37.020,232.600 36.800 C 232.464 36.580,232.003 36.400,231.576 36.400 C 231.149 36.400,230.800 36.220,230.800 36.000 C 230.800 35.780,230.080 35.600,229.200 35.600 C 228.320 35.600,227.600 35.420,227.600 35.200 C 227.600 34.980,226.621 34.800,225.424 34.800 C 224.227 34.800,223.136 34.620,223.000 34.400 C 222.863 34.179,221.063 34.000,218.976 34.000 C 216.725 34.000,215.200 34.162,215.200 34.400 M386.978 44.700 C 388.592 51.232,388.682 64.991,387.151 71.000 C 379.460 101.181,354.598 119.383,324.092 117.168 C 319.474 116.833,315.099 116.033,314.476 115.409 C 314.169 115.103,385.640 43.600,386.253 43.600 C 386.502 43.600,386.829 44.095,386.978 44.700 M43.780 129.563 C 43.571 129.763,42.500 130.028,41.400 130.152 C 36.821 130.670,35.600 130.899,35.600 131.240 C 35.600 131.438,35.060 131.600,34.400 131.600 C 33.740 131.600,33.200 131.780,33.200 132.000 C 33.200 132.220,32.570 132.400,31.800 132.400 C 31.030 132.400,30.400 132.580,30.400 132.800 C 30.400 133.020,29.950 133.200,29.400 133.200 C 28.850 133.200,28.400 133.380,28.400 133.600 C 28.400 133.820,28.076 134.000,27.680 134.000 C 26.786 134.000,24.807 134.894,24.803 135.300 C 24.801 135.465,24.260 135.600,23.600 135.600 C 22.940 135.600,22.400 135.780,22.400 136.000 C 22.400 136.220,22.040 136.400,21.600 136.400 C 21.160 136.400,20.800 136.580,20.800 136.800 C 20.800 137.020,20.480 137.200,20.088 137.200 C 19.697 137.200,19.117 137.560,18.800 138.000 C 18.483 138.440,17.903 138.800,17.512 138.800 C 17.120 138.800,16.800 138.980,16.800 139.200 C 16.800 139.420,16.440 139.600,16.000 139.600 C 15.560 139.600,15.200 139.780,15.200 140.000 C 15.200 140.220,14.964 140.400,14.675 140.400 C 14.387 140.400,13.764 140.760,13.292 141.200 C 12.820 141.640,12.227 142.000,11.974 142.000 C 11.527 142.000,9.894 143.183,8.114 144.797 C 7.627 145.239,7.074 145.600,6.885 145.600 C 6.696 145.600,5.578 146.500,4.400 147.600 C 3.222 148.700,2.097 149.600,1.901 149.600 C -0.241 149.600,-0.863 157.791,1.118 159.912 C 1.779 160.620,2.609 161.200,2.960 161.200 C 3.312 161.200,3.600 161.380,3.600 161.600 C 3.600 161.820,4.590 162.000,5.800 162.000 C 7.010 162.000,8.000 161.820,8.000 161.600 C 8.000 161.380,8.272 161.200,8.604 161.200 C 8.936 161.200,9.772 160.660,10.463 160.000 C 11.154 159.340,11.924 158.800,12.176 158.800 C 12.428 158.800,13.260 158.215,14.026 157.500 C 14.792 156.785,15.909 155.945,16.509 155.632 C 17.109 155.320,17.600 154.915,17.600 154.732 C 17.600 154.550,17.836 154.400,18.125 154.400 C 18.413 154.400,19.036 154.040,19.508 153.600 C 19.980 153.160,20.554 152.800,20.783 152.800 C 21.012 152.800,21.200 152.620,21.200 152.400 C 21.200 152.180,21.470 152.000,21.800 152.000 C 22.130 152.000,22.400 151.854,22.400 151.675 C 22.400 151.496,23.030 151.102,23.800 150.800 C 24.570 150.498,25.200 150.104,25.200 149.925 C 25.200 149.746,25.560 149.600,26.000 149.600 C 26.440 149.600,26.800 149.420,26.800 149.200 C 26.800 148.980,27.160 148.800,27.600 148.800 C 28.040 148.800,28.400 148.620,28.400 148.400 C 28.400 148.180,28.760 148.000,29.200 148.000 C 29.640 148.000,30.000 147.820,30.000 147.600 C 30.000 147.380,30.360 147.200,30.800 147.200 C 31.240 147.200,31.600 147.020,31.600 146.800 C 31.600 146.580,32.140 146.400,32.800 146.400 C 33.460 146.400,34.000 146.220,34.000 146.000 C 34.000 145.780,34.439 145.600,34.976 145.600 C 35.513 145.600,36.064 145.420,36.200 145.200 C 36.336 144.980,36.977 144.800,37.624 144.800 C 38.271 144.800,38.800 144.620,38.800 144.400 C 38.800 144.180,39.430 144.000,40.200 144.000 C 40.970 144.000,41.600 143.820,41.600 143.600 C 41.600 143.380,42.500 143.200,43.600 143.200 C 44.700 143.200,45.600 143.020,45.600 142.800 C 45.600 142.544,49.133 142.400,55.400 142.400 C 61.667 142.400,65.200 142.544,65.200 142.800 C 65.200 143.022,66.267 143.200,67.600 143.200 C 68.933 143.200,70.000 143.378,70.000 143.600 C 70.000 143.820,70.900 144.000,72.000 144.000 C 73.100 144.000,74.000 144.180,74.000 144.400 C 74.000 144.620,74.619 144.800,75.376 144.800 C 76.133 144.800,76.864 144.980,77.000 145.200 C 77.136 145.420,77.867 145.600,78.624 145.600 C 79.381 145.600,80.000 145.780,80.000 146.000 C 80.000 146.220,80.540 146.400,81.200 146.400 C 81.860 146.400,82.400 146.580,82.400 146.800 C 82.400 147.020,82.929 147.200,83.576 147.200 C 84.223 147.200,84.864 147.380,85.000 147.600 C 85.136 147.820,85.687 148.000,86.224 148.000 C 86.761 148.000,87.200 148.180,87.200 148.400 C 87.200 148.620,87.740 148.800,88.400 148.800 C 89.060 148.800,89.600 148.980,89.600 149.200 C 89.600 149.420,90.140 149.600,90.800 149.600 C 91.460 149.600,92.000 149.780,92.000 150.000 C 92.000 150.220,92.450 150.400,93.000 150.400 C 93.550 150.400,94.000 150.580,94.000 150.800 C 94.000 151.020,94.439 151.200,94.976 151.200 C 95.513 151.200,96.064 151.380,96.200 151.600 C 96.336 151.820,96.797 152.000,97.224 152.000 C 97.651 152.000,98.000 152.180,98.000 152.400 C 98.000 152.620,98.439 152.800,98.976 152.800 C 99.513 152.800,100.064 152.980,100.200 153.200 C 100.336 153.420,100.797 153.600,101.224 153.600 C 101.651 153.600,102.000 153.747,102.000 153.928 C 102.000 154.108,102.900 154.500,104.000 154.800 C 105.100 155.100,106.000 155.492,106.000 155.672 C 106.000 155.853,106.242 156.000,106.539 156.000 C 106.835 156.000,107.600 156.253,108.239 156.562 C 111.145 157.967,113.206 158.800,113.778 158.800 C 114.120 158.800,114.400 158.980,114.400 159.200 C 114.400 159.420,114.940 159.600,115.600 159.600 C 116.260 159.600,116.800 159.780,116.800 160.000 C 116.800 160.220,117.160 160.400,117.600 160.400 C 118.040 160.400,118.400 160.580,118.400 160.800 C 118.400 161.020,118.760 161.200,119.200 161.200 C 119.640 161.200,120.000 161.380,120.000 161.600 C 120.000 161.820,120.439 162.000,120.976 162.000 C 121.513 162.000,122.064 162.180,122.200 162.400 C 122.336 162.620,122.797 162.800,123.224 162.800 C 123.651 162.800,124.000 162.980,124.000 163.200 C 124.000 163.420,124.360 163.600,124.800 163.600 C 125.240 163.600,125.600 163.780,125.600 164.000 C 125.600 164.220,125.949 164.400,126.376 164.400 C 126.803 164.400,127.264 164.580,127.400 164.800 C 127.536 165.020,127.997 165.200,128.424 165.200 C 128.851 165.200,129.200 165.380,129.200 165.600 C 129.200 165.820,129.560 166.000,130.000 166.000 C 130.440 166.000,130.800 166.180,130.800 166.400 C 130.800 166.620,131.149 166.800,131.576 166.800 C 132.003 166.800,132.464 166.980,132.600 167.200 C 132.736 167.420,133.287 167.600,133.824 167.600 C 134.361 167.600,134.800 167.780,134.800 168.000 C 134.800 168.220,135.160 168.400,135.600 168.400 C 136.040 168.400,136.400 168.580,136.400 168.800 C 136.400 169.020,136.940 169.200,137.600 169.200 C 138.260 169.200,138.800 169.380,138.800 169.600 C 138.800 169.820,139.160 170.000,139.600 170.000 C 140.040 170.000,140.400 170.180,140.400 170.400 C 140.400 170.620,140.762 170.800,141.205 170.800 C 141.648 170.800,142.323 170.959,142.705 171.153 C 143.087 171.348,143.940 171.729,144.600 172.000 C 145.260 172.271,146.113 172.652,146.495 172.847 C 146.877 173.041,147.541 173.200,147.971 173.200 C 148.401 173.200,148.864 173.380,149.000 173.600 C 149.136 173.820,149.676 174.000,150.200 174.000 C 150.724 174.000,151.251 174.159,151.371 174.354 C 151.492 174.548,152.398 174.829,153.386 174.977 C 154.373 175.125,155.286 175.416,155.414 175.623 C 155.542 175.830,156.267 176.000,157.024 176.000 C 157.781 176.000,158.400 176.180,158.400 176.400 C 158.400 176.620,158.940 176.800,159.600 176.800 C 160.260 176.800,160.800 176.980,160.800 177.200 C 160.800 177.420,161.430 177.600,162.200 177.600 C 162.970 177.600,163.600 177.780,163.600 178.000 C 163.600 178.220,164.320 178.400,165.200 178.400 C 166.080 178.400,166.800 178.580,166.800 178.800 C 166.800 179.020,167.700 179.200,168.800 179.200 C 169.900 179.200,170.800 179.380,170.800 179.600 C 170.800 179.820,171.700 180.000,172.800 180.000 C 173.900 180.000,174.800 180.180,174.800 180.400 C 174.800 180.631,176.059 180.800,177.776 180.800 C 179.413 180.800,180.864 180.980,181.000 181.200 C 181.152 181.446,184.471 181.600,189.624 181.600 C 194.941 181.600,198.000 181.454,198.000 181.200 C 198.000 180.971,199.200 180.800,200.800 180.800 C 202.400 180.800,203.600 180.629,203.600 180.400 C 203.600 180.180,204.399 180.000,205.376 180.000 C 206.353 180.000,207.264 179.820,207.400 179.600 C 207.536 179.380,208.267 179.200,209.024 179.200 C 209.781 179.200,210.400 179.020,210.400 178.800 C 210.400 178.580,210.929 178.400,211.576 178.400 C 212.223 178.400,212.864 178.220,213.000 178.000 C 213.136 177.780,213.676 177.600,214.200 177.600 C 214.724 177.600,215.264 177.420,215.400 177.200 C 215.536 176.980,216.087 176.800,216.624 176.800 C 217.161 176.800,217.600 176.620,217.600 176.400 C 217.600 176.180,218.050 176.000,218.600 176.000 C 219.150 176.000,219.600 175.820,219.600 175.600 C 219.600 175.380,219.987 175.200,220.460 175.200 C 221.385 175.200,225.713 173.235,225.933 172.715 C 226.007 172.542,226.412 172.400,226.833 172.400 C 227.255 172.400,227.600 172.242,227.600 172.049 C 227.600 171.855,228.140 171.473,228.800 171.200 C 229.460 170.927,230.000 170.545,230.000 170.351 C 230.000 170.158,230.320 170.000,230.712 170.000 C 231.103 170.000,231.683 169.640,232.000 169.200 C 232.317 168.760,232.857 168.400,233.200 168.400 C 233.543 168.400,234.083 168.040,234.400 167.600 C 234.717 167.160,235.180 166.800,235.429 166.800 C 235.678 166.800,236.446 166.260,237.137 165.600 C 237.828 164.940,238.574 164.400,238.796 164.400 C 239.018 164.400,239.200 164.250,239.200 164.068 C 239.200 163.885,239.647 163.496,240.193 163.204 C 240.740 162.911,241.278 162.386,241.389 162.036 C 241.500 161.686,242.133 161.159,242.795 160.866 C 243.530 160.541,244.000 160.034,244.000 159.566 C 244.000 159.145,244.180 158.800,244.400 158.800 C 244.620 158.800,244.800 158.530,244.800 158.200 C 244.800 157.870,244.980 157.600,245.200 157.600 C 245.422 157.600,245.600 156.533,245.600 155.200 C 245.600 153.867,245.422 152.800,245.200 152.800 C 244.980 152.800,244.800 152.522,244.800 152.182 C 244.800 151.508,243.465 150.092,242.083 149.300 C 240.310 148.284,236.362 148.663,234.800 150.000 C 234.030 150.659,233.251 151.199,233.069 151.199 C 232.886 151.200,232.046 151.920,231.200 152.800 C 230.354 153.680,229.472 154.400,229.238 154.400 C 228.842 154.400,227.644 155.364,225.387 157.500 C 224.864 157.995,224.254 158.400,224.032 158.400 C 223.358 158.400,220.800 159.725,220.800 160.074 C 220.800 160.253,220.440 160.400,220.000 160.400 C 219.560 160.400,219.200 160.580,219.200 160.800 C 219.200 161.020,218.840 161.200,218.400 161.200 C 217.960 161.200,217.600 161.380,217.600 161.600 C 217.600 161.820,217.240 162.000,216.800 162.000 C 216.360 162.000,216.000 162.180,216.000 162.400 C 216.000 162.620,215.728 162.800,215.395 162.800 C 215.062 162.800,214.432 162.980,213.995 163.200 C 213.558 163.420,212.842 163.780,212.405 164.000 C 211.968 164.220,211.248 164.400,210.805 164.400 C 210.362 164.400,210.000 164.580,210.000 164.800 C 210.000 165.020,209.460 165.200,208.800 165.200 C 208.140 165.200,207.600 165.380,207.600 165.600 C 207.600 165.820,207.060 166.000,206.400 166.000 C 205.740 166.000,205.200 166.180,205.200 166.400 C 205.200 166.620,204.300 166.800,203.200 166.800 C 202.100 166.800,201.200 166.980,201.200 167.200 C 201.200 167.422,200.141 167.600,198.824 167.600 C 197.517 167.600,196.336 167.780,196.200 168.000 C 196.051 168.241,193.263 168.400,189.176 168.400 C 184.925 168.400,182.400 168.251,182.400 168.000 C 182.400 167.771,181.200 167.600,179.600 167.600 C 178.000 167.600,176.800 167.429,176.800 167.200 C 176.800 166.980,175.900 166.800,174.800 166.800 C 173.700 166.800,172.800 166.620,172.800 166.400 C 172.800 166.180,171.990 166.000,171.000 166.000 C 170.010 166.000,169.200 165.820,169.200 165.600 C 169.200 165.380,168.480 165.200,167.600 165.200 C 166.720 165.200,166.000 165.020,166.000 164.800 C 166.000 164.580,165.460 164.400,164.800 164.400 C 164.140 164.400,163.600 164.220,163.600 164.000 C 163.600 163.780,162.981 163.600,162.224 163.600 C 161.467 163.600,160.736 163.420,160.600 163.200 C 160.464 162.980,160.001 162.800,159.571 162.800 C 159.141 162.800,158.387 162.592,157.895 162.338 C 156.016 161.366,155.593 161.200,155.000 161.200 C 154.664 161.200,154.032 161.020,153.595 160.800 C 153.158 160.580,152.442 160.220,152.005 160.000 C 151.568 159.780,150.959 159.600,150.651 159.600 C 150.343 159.600,149.576 159.331,148.946 159.002 C 148.316 158.674,147.305 158.404,146.700 158.402 C 146.095 158.401,145.600 158.220,145.600 158.000 C 145.600 157.780,145.240 157.600,144.800 157.600 C 144.360 157.600,144.000 157.420,144.000 157.200 C 144.000 156.980,143.460 156.800,142.800 156.800 C 142.140 156.800,141.600 156.620,141.600 156.400 C 141.600 156.180,141.240 156.000,140.800 156.000 C 140.360 156.000,140.000 155.820,140.000 155.600 C 140.000 155.380,139.550 155.200,139.000 155.200 C 138.450 155.200,138.000 155.020,138.000 154.800 C 138.000 154.580,137.640 154.400,137.200 154.400 C 136.760 154.400,136.400 154.220,136.400 154.000 C 136.400 153.780,136.040 153.600,135.600 153.600 C 135.160 153.600,134.800 153.420,134.800 153.200 C 134.800 152.980,134.361 152.800,133.824 152.800 C 133.287 152.800,132.736 152.620,132.600 152.400 C 132.464 152.180,132.003 152.000,131.576 152.000 C 131.149 152.000,130.800 151.820,130.800 151.600 C 130.800 151.380,130.440 151.200,130.000 151.200 C 129.560 151.200,129.200 151.020,129.200 150.800 C 129.200 150.580,128.851 150.400,128.424 150.400 C 127.997 150.400,127.536 150.220,127.400 150.000 C 127.264 149.780,126.713 149.600,126.176 149.600 C 125.639 149.600,125.199 149.465,125.197 149.300 C 125.193 148.941,123.256 148.000,122.520 148.000 C 122.234 148.000,122.000 147.820,122.000 147.600 C 122.000 147.380,121.550 147.200,121.000 147.200 C 120.450 147.200,120.000 147.020,120.000 146.800 C 120.000 146.580,119.640 146.400,119.200 146.400 C 118.760 146.400,118.400 146.220,118.400 146.000 C 118.400 145.780,118.051 145.600,117.624 145.600 C 117.197 145.600,116.736 145.420,116.600 145.200 C 116.464 144.980,115.913 144.800,115.376 144.800 C 114.839 144.800,114.400 144.620,114.400 144.400 C 114.400 144.180,114.040 144.000,113.600 144.000 C 113.160 144.000,112.800 143.859,112.800 143.687 C 112.800 143.515,111.945 143.132,110.900 142.835 C 109.001 142.295,106.815 141.457,105.505 140.766 C 105.123 140.565,104.538 140.400,104.205 140.400 C 103.872 140.400,103.600 140.220,103.600 140.000 C 103.600 139.780,103.161 139.600,102.624 139.600 C 102.087 139.600,101.536 139.420,101.400 139.200 C 101.264 138.980,100.803 138.800,100.376 138.800 C 99.949 138.800,99.600 138.620,99.600 138.400 C 99.600 138.180,99.060 138.000,98.400 138.000 C 97.740 138.000,97.200 137.820,97.200 137.600 C 97.200 137.380,96.660 137.200,96.000 137.200 C 95.340 137.200,94.800 137.020,94.800 136.800 C 94.800 136.580,94.260 136.400,93.600 136.400 C 92.940 136.400,92.400 136.220,92.400 136.000 C 92.400 135.780,91.950 135.600,91.400 135.600 C 90.850 135.600,90.400 135.420,90.400 135.200 C 90.400 134.980,89.860 134.800,89.200 134.800 C 88.540 134.800,88.000 134.620,88.000 134.400 C 88.000 134.180,87.460 134.000,86.800 134.000 C 86.140 134.000,85.600 133.820,85.600 133.600 C 85.600 133.380,84.880 133.200,84.000 133.200 C 83.120 133.200,82.400 133.040,82.400 132.844 C 82.400 132.494,81.063 132.180,77.700 131.741 C 76.765 131.619,76.000 131.358,76.000 131.160 C 76.000 130.962,75.201 130.800,74.224 130.800 C 73.247 130.800,72.336 130.620,72.200 130.400 C 72.064 130.180,70.894 130.000,69.600 130.000 C 68.306 130.000,67.136 129.820,67.000 129.600 C 66.685 129.090,44.312 129.054,43.780 129.563 M58.400 182.000 C 58.400 182.225,57.275 182.400,55.824 182.400 C 54.407 182.400,53.136 182.580,53.000 182.800 C 52.864 183.020,51.964 183.200,51.000 183.200 C 50.036 183.200,49.136 183.380,49.000 183.600 C 48.864 183.820,48.307 184.000,47.763 184.000 C 46.768 184.000,44.689 185.801,43.700 187.520 C 42.481 189.639,43.782 195.009,45.631 195.492 C 46.054 195.603,46.400 195.852,46.400 196.047 C 46.400 196.241,46.940 196.400,47.600 196.400 C 48.260 196.400,48.800 196.580,48.800 196.800 C 48.800 197.020,49.340 197.200,50.000 197.200 C 50.660 197.200,51.200 197.020,51.200 196.800 C 51.200 196.580,52.100 196.400,53.200 196.400 C 54.300 196.400,55.200 196.220,55.200 196.000 C 55.200 195.780,56.190 195.600,57.400 195.600 C 58.610 195.600,59.600 195.420,59.600 195.200 C 59.600 194.945,62.992 194.800,68.976 194.800 C 74.796 194.800,78.447 194.952,78.600 195.200 C 78.736 195.420,80.007 195.600,81.424 195.600 C 82.875 195.600,84.000 195.775,84.000 196.000 C 84.000 196.220,84.889 196.400,85.976 196.400 C 87.063 196.400,88.064 196.580,88.200 196.800 C 88.336 197.020,89.247 197.200,90.224 197.200 C 91.201 197.200,92.000 197.380,92.000 197.600 C 92.000 197.820,92.630 198.000,93.400 198.000 C 94.170 198.000,94.800 198.180,94.800 198.400 C 94.800 198.620,95.340 198.800,96.000 198.800 C 96.660 198.800,97.200 198.980,97.200 199.200 C 97.200 199.420,97.819 199.600,98.576 199.600 C 99.333 199.600,100.064 199.780,100.200 200.000 C 100.336 200.220,100.977 200.400,101.624 200.400 C 102.271 200.400,102.800 200.547,102.800 200.728 C 102.800 200.908,103.711 201.304,104.825 201.607 C 105.939 201.910,106.940 202.303,107.049 202.479 C 107.158 202.656,107.687 202.800,108.224 202.800 C 108.761 202.800,109.200 202.980,109.200 203.200 C 109.200 203.420,109.650 203.600,110.200 203.600 C 110.750 203.600,111.200 203.780,111.200 204.000 C 111.200 204.220,111.549 204.400,111.976 204.400 C 112.403 204.400,112.864 204.580,113.000 204.800 C 113.136 205.020,113.687 205.200,114.224 205.200 C 114.761 205.200,115.200 205.380,115.200 205.600 C 115.200 205.820,115.436 206.000,115.725 206.000 C 116.206 206.000,118.888 207.128,120.451 207.987 C 120.809 208.184,121.754 208.468,122.551 208.617 C 123.348 208.767,124.000 209.049,124.000 209.245 C 124.000 209.440,124.360 209.600,124.800 209.600 C 125.240 209.600,125.600 209.780,125.600 210.000 C 125.600 210.220,125.870 210.400,126.200 210.400 C 126.530 210.400,126.800 210.580,126.800 210.800 C 126.800 211.020,127.160 211.200,127.600 211.200 C 128.040 211.200,128.400 211.380,128.400 211.600 C 128.400 211.820,128.760 212.000,129.200 212.000 C 129.640 212.000,130.000 212.180,130.000 212.400 C 130.000 212.620,130.360 212.800,130.800 212.800 C 131.240 212.800,131.600 212.980,131.600 213.200 C 131.600 213.420,131.960 213.600,132.400 213.600 C 132.840 213.600,133.200 213.780,133.200 214.000 C 133.200 214.220,133.560 214.400,134.000 214.400 C 134.440 214.400,134.800 214.580,134.800 214.800 C 134.800 215.020,135.160 215.200,135.600 215.200 C 136.040 215.200,136.400 215.380,136.400 215.600 C 136.400 215.820,136.760 216.000,137.200 216.000 C 137.640 216.000,138.000 216.180,138.000 216.400 C 138.000 216.620,138.360 216.800,138.800 216.800 C 139.240 216.800,139.600 216.958,139.600 217.151 C 139.600 217.345,140.140 217.727,140.800 218.000 C 141.460 218.273,142.001 218.610,142.001 218.749 C 142.002 218.887,142.992 219.450,144.200 220.000 C 145.408 220.550,146.398 221.135,146.399 221.300 C 146.399 221.465,146.745 221.600,147.167 221.600 C 147.588 221.600,147.993 221.739,148.067 221.909 C 148.270 222.382,153.829 225.200,154.558 225.200 C 154.911 225.200,155.200 225.380,155.200 225.600 C 155.200 225.820,155.560 226.000,156.000 226.000 C 156.440 226.000,156.800 226.180,156.800 226.400 C 156.800 226.620,157.160 226.800,157.600 226.800 C 158.040 226.800,158.400 226.980,158.400 227.200 C 158.400 227.420,158.670 227.600,159.000 227.600 C 159.330 227.600,159.600 227.780,159.600 228.000 C 159.600 228.220,159.960 228.400,160.400 228.400 C 160.840 228.400,161.200 228.580,161.200 228.800 C 161.200 229.020,161.560 229.200,162.000 229.200 C 162.440 229.200,162.800 229.380,162.800 229.600 C 162.800 229.820,163.160 230.000,163.600 230.000 C 164.040 230.000,164.400 230.180,164.400 230.400 C 164.400 230.620,164.839 230.800,165.376 230.800 C 165.913 230.800,166.464 230.980,166.600 231.200 C 166.736 231.420,167.197 231.600,167.624 231.600 C 168.051 231.600,168.400 231.780,168.400 232.000 C 168.400 232.220,168.760 232.400,169.200 232.400 C 169.640 232.400,170.000 232.580,170.000 232.800 C 170.000 233.020,170.540 233.200,171.200 233.200 C 171.860 233.200,172.400 233.380,172.400 233.600 C 172.400 233.820,172.760 234.000,173.200 234.000 C 173.640 234.000,174.000 234.180,174.000 234.400 C 174.000 234.620,174.439 234.800,174.976 234.800 C 175.513 234.800,176.064 234.980,176.200 235.200 C 176.336 235.420,176.887 235.600,177.424 235.600 C 177.961 235.600,178.400 235.780,178.400 236.000 C 178.400 236.220,178.839 236.400,179.376 236.400 C 179.913 236.400,180.464 236.580,180.600 236.800 C 180.736 237.020,181.377 237.200,182.024 237.200 C 182.671 237.200,183.200 237.380,183.200 237.600 C 183.200 237.820,183.740 238.000,184.400 238.000 C 185.060 238.000,185.600 238.160,185.600 238.356 C 185.600 238.552,186.230 238.822,187.000 238.956 C 187.770 239.090,189.032 239.310,189.804 239.444 C 190.576 239.579,191.306 239.849,191.427 240.044 C 191.548 240.240,192.188 240.400,192.850 240.400 C 193.511 240.400,194.377 240.574,194.774 240.786 C 195.171 240.999,196.960 241.295,198.748 241.444 C 200.537 241.593,202.000 241.869,202.000 242.058 C 202.000 242.246,203.260 242.400,204.800 242.400 C 206.400 242.400,207.600 242.571,207.600 242.800 C 207.600 243.052,210.333 243.200,215.000 243.200 C 219.667 243.200,222.400 243.348,222.400 243.600 C 222.400 243.820,222.760 244.000,223.200 244.000 C 223.640 244.000,224.000 243.820,224.000 243.600 C 224.000 243.352,226.133 243.200,229.600 243.200 C 233.067 243.200,235.200 243.048,235.200 242.800 C 235.200 242.578,236.259 242.400,237.576 242.400 C 238.883 242.400,240.048 242.245,240.165 242.056 C 240.282 241.867,241.778 241.589,243.489 241.438 C 246.486 241.173,248.631 240.690,250.095 239.951 C 250.477 239.758,251.321 239.600,251.971 239.600 C 252.621 239.600,253.264 239.420,253.400 239.200 C 253.536 238.980,254.076 238.800,254.600 238.800 C 255.124 238.800,255.664 238.620,255.800 238.400 C 255.936 238.180,256.487 238.000,257.024 238.000 C 257.561 238.000,258.000 237.820,258.000 237.600 C 258.000 237.380,258.360 237.200,258.800 237.200 C 259.240 237.200,259.600 237.020,259.600 236.800 C 259.600 236.580,260.140 236.400,260.800 236.400 C 261.460 236.400,262.000 236.220,262.000 236.000 C 262.000 235.780,262.360 235.600,262.800 235.600 C 263.240 235.600,263.600 235.420,263.600 235.200 C 263.600 234.980,264.039 234.800,264.576 234.800 C 265.113 234.800,265.664 234.620,265.800 234.400 C 265.936 234.180,266.397 234.000,266.824 234.000 C 267.251 234.000,267.600 233.820,267.600 233.600 C 267.600 233.380,267.960 233.200,268.400 233.200 C 268.840 233.200,269.200 233.020,269.200 232.800 C 269.200 232.580,269.560 232.400,270.000 232.400 C 270.440 232.400,270.800 232.220,270.800 232.000 C 270.800 231.780,271.160 231.600,271.600 231.600 C 272.040 231.600,272.400 231.420,272.400 231.200 C 272.400 230.980,272.670 230.800,273.000 230.800 C 273.330 230.800,273.600 230.620,273.600 230.400 C 273.600 230.180,273.920 230.000,274.312 230.000 C 274.703 230.000,275.283 229.640,275.600 229.200 C 275.917 228.760,276.497 228.400,276.888 228.400 C 277.280 228.400,277.600 228.220,277.600 228.000 C 277.600 227.780,277.920 227.600,278.312 227.600 C 278.703 227.600,279.283 227.240,279.600 226.800 C 279.917 226.360,280.497 226.000,280.888 226.000 C 281.280 226.000,281.600 225.820,281.600 225.600 C 281.600 225.380,281.827 225.200,282.105 225.200 C 282.680 225.200,286.930 222.438,287.133 221.932 C 287.207 221.749,287.477 221.597,287.733 221.593 C 288.263 221.584,290.283 220.021,292.245 218.100 C 292.976 217.385,293.771 216.800,294.013 216.800 C 294.254 216.800,295.329 215.900,296.400 214.800 C 297.471 213.700,298.544 212.800,298.783 212.800 C 299.022 212.800,300.176 211.855,301.347 210.700 C 302.518 209.545,304.630 207.484,306.038 206.120 C 310.263 202.030,310.389 201.810,310.395 198.500 C 310.398 196.830,310.230 195.600,310.000 195.600 C 309.780 195.600,309.600 195.317,309.600 194.971 C 309.600 193.533,306.698 192.000,303.973 192.000 C 301.329 192.000,299.698 193.063,294.645 198.079 C 292.030 200.676,289.753 202.800,289.586 202.800 C 289.418 202.800,288.362 203.700,287.239 204.800 C 286.115 205.900,284.993 206.800,284.745 206.800 C 284.497 206.800,284.003 207.133,283.647 207.541 C 283.291 207.948,282.460 208.563,281.800 208.907 C 281.140 209.251,280.240 209.862,279.800 210.266 C 279.360 210.670,278.505 211.255,277.900 211.568 C 277.295 211.880,276.800 212.285,276.800 212.468 C 276.800 212.650,276.570 212.800,276.288 212.800 C 276.007 212.800,275.517 213.160,275.200 213.600 C 274.883 214.040,274.303 214.400,273.912 214.400 C 273.520 214.400,273.200 214.580,273.200 214.800 C 273.200 215.020,272.964 215.200,272.675 215.200 C 272.387 215.200,271.764 215.560,271.292 216.000 C 270.820 216.440,270.156 216.800,269.817 216.800 C 269.478 216.800,269.200 216.980,269.200 217.200 C 269.200 217.420,268.855 217.600,268.433 217.600 C 268.012 217.600,267.607 217.735,267.533 217.900 C 267.366 218.276,265.236 219.575,264.300 219.871 C 263.915 219.993,263.600 220.252,263.600 220.447 C 263.600 220.641,263.251 220.800,262.824 220.800 C 262.397 220.800,261.936 220.980,261.800 221.200 C 261.664 221.420,261.203 221.600,260.776 221.600 C 260.349 221.600,260.000 221.780,260.000 222.000 C 260.000 222.220,259.640 222.400,259.200 222.400 C 258.760 222.400,258.400 222.580,258.400 222.800 C 258.400 223.020,258.040 223.200,257.600 223.200 C 257.160 223.200,256.800 223.380,256.800 223.600 C 256.800 223.820,256.260 224.000,255.600 224.000 C 254.940 224.000,254.400 224.160,254.400 224.355 C 254.400 224.550,253.594 224.830,252.609 224.978 C 251.624 225.125,250.714 225.416,250.586 225.623 C 250.458 225.830,249.971 226.000,249.505 226.000 C 248.604 226.000,246.261 226.665,245.105 227.249 C 244.723 227.442,243.868 227.600,243.205 227.600 C 242.542 227.600,242.000 227.780,242.000 228.000 C 242.000 228.220,241.100 228.400,240.000 228.400 C 238.900 228.400,238.000 228.580,238.000 228.800 C 238.000 229.022,236.933 229.200,235.600 229.200 C 234.267 229.200,233.200 229.378,233.200 229.600 C 233.200 229.843,231.400 230.000,228.600 230.000 C 225.800 230.000,224.000 230.157,224.000 230.400 C 224.000 230.628,222.808 230.800,221.224 230.800 C 219.697 230.800,218.336 230.620,218.200 230.400 C 218.058 230.171,215.996 230.000,213.376 230.000 C 210.592 230.000,208.800 229.843,208.800 229.600 C 208.800 229.378,207.741 229.200,206.424 229.200 C 205.117 229.200,203.936 229.020,203.800 228.800 C 203.664 228.580,202.663 228.400,201.576 228.400 C 200.489 228.400,199.600 228.220,199.600 228.000 C 199.600 227.780,198.891 227.600,198.024 227.600 C 197.157 227.600,196.336 227.420,196.200 227.200 C 196.064 226.980,195.363 226.800,194.643 226.800 C 193.923 226.800,193.208 226.674,193.054 226.521 C 192.676 226.143,187.621 224.824,186.500 224.811 C 186.005 224.805,185.600 224.620,185.600 224.400 C 185.600 224.180,185.161 224.000,184.624 224.000 C 184.087 224.000,183.536 223.820,183.400 223.600 C 183.264 223.380,182.803 223.200,182.376 223.200 C 181.949 223.200,181.600 223.020,181.600 222.800 C 181.600 222.580,181.060 222.400,180.400 222.400 C 179.740 222.400,179.200 222.220,179.200 222.000 C 179.200 221.780,178.840 221.600,178.400 221.600 C 177.960 221.600,177.600 221.420,177.600 221.200 C 177.600 220.980,177.060 220.800,176.400 220.800 C 175.740 220.800,175.200 220.620,175.200 220.400 C 175.200 220.180,174.840 220.000,174.400 220.000 C 173.960 220.000,173.600 219.820,173.600 219.600 C 173.600 219.380,173.251 219.200,172.824 219.200 C 172.397 219.200,171.936 219.020,171.800 218.800 C 171.664 218.580,171.203 218.400,170.776 218.400 C 170.349 218.400,170.000 218.220,170.000 218.000 C 170.000 217.780,169.640 217.600,169.200 217.600 C 168.760 217.600,168.400 217.420,168.400 217.200 C 168.400 216.980,168.040 216.800,167.600 216.800 C 167.160 216.800,166.800 216.620,166.800 216.400 C 166.800 216.180,166.440 216.000,166.000 216.000 C 165.560 216.000,165.200 215.820,165.200 215.600 C 165.200 215.380,164.840 215.200,164.400 215.200 C 163.960 215.200,163.600 215.020,163.600 214.800 C 163.600 214.580,163.240 214.400,162.800 214.400 C 162.360 214.400,162.000 214.220,162.000 214.000 C 162.000 213.780,161.640 213.600,161.200 213.600 C 160.760 213.600,160.400 213.420,160.400 213.200 C 160.400 212.980,160.040 212.800,159.600 212.800 C 159.160 212.800,158.800 212.649,158.800 212.464 C 158.800 212.027,151.874 208.400,151.039 208.400 C 150.687 208.400,150.400 208.220,150.400 208.000 C 150.400 207.780,150.164 207.600,149.875 207.600 C 149.587 207.600,148.964 207.240,148.492 206.800 C 148.020 206.360,147.356 206.000,147.017 206.000 C 146.678 206.000,146.400 205.820,146.400 205.600 C 146.400 205.380,146.040 205.200,145.600 205.200 C 145.160 205.200,144.800 205.020,144.800 204.800 C 144.800 204.580,144.440 204.400,144.000 204.400 C 143.560 204.400,143.200 204.220,143.200 204.000 C 143.200 203.780,142.840 203.600,142.400 203.600 C 141.960 203.600,141.600 203.420,141.600 203.200 C 141.600 202.980,141.330 202.800,141.000 202.800 C 140.670 202.800,140.400 202.620,140.400 202.400 C 140.400 202.180,140.040 202.000,139.600 202.000 C 139.160 202.000,138.800 201.820,138.800 201.600 C 138.800 201.380,138.440 201.200,138.000 201.200 C 137.560 201.200,137.200 201.020,137.200 200.800 C 137.200 200.580,136.840 200.400,136.400 200.400 C 135.960 200.400,135.600 200.220,135.600 200.000 C 135.600 199.780,135.240 199.600,134.800 199.600 C 134.360 199.600,134.000 199.420,134.000 199.200 C 134.000 198.980,133.640 198.800,133.200 198.800 C 132.760 198.800,132.400 198.620,132.400 198.400 C 132.400 198.180,132.040 198.000,131.600 198.000 C 131.160 198.000,130.800 197.820,130.800 197.600 C 130.800 197.380,130.440 197.200,130.000 197.200 C 129.560 197.200,129.200 197.020,129.200 196.800 C 129.200 196.580,128.840 196.400,128.400 196.400 C 127.960 196.400,127.600 196.220,127.600 196.000 C 127.600 195.780,127.285 195.594,126.900 195.587 C 126.515 195.581,125.173 195.064,123.918 194.440 C 122.663 193.816,120.549 192.967,119.221 192.553 C 117.893 192.139,116.805 191.665,116.803 191.500 C 116.802 191.335,116.260 191.200,115.600 191.200 C 114.940 191.200,114.400 191.020,114.400 190.800 C 114.400 190.580,113.961 190.400,113.424 190.400 C 112.887 190.400,112.336 190.220,112.200 190.000 C 112.064 189.780,111.603 189.600,111.176 189.600 C 110.749 189.600,110.400 189.420,110.400 189.200 C 110.400 188.980,109.860 188.800,109.200 188.800 C 108.540 188.800,108.000 188.620,108.000 188.400 C 108.000 188.180,107.460 188.000,106.800 188.000 C 106.140 188.000,105.600 187.820,105.600 187.600 C 105.600 187.380,104.970 187.200,104.200 187.200 C 103.430 187.200,102.800 187.020,102.800 186.800 C 102.800 186.580,102.260 186.400,101.600 186.400 C 100.940 186.400,100.400 186.220,100.400 186.000 C 100.400 185.780,99.680 185.600,98.800 185.600 C 97.920 185.600,97.200 185.420,97.200 185.200 C 97.200 184.980,96.480 184.800,95.600 184.800 C 94.720 184.800,94.000 184.620,94.000 184.400 C 94.000 184.180,93.280 184.000,92.400 184.000 C 91.520 184.000,90.800 183.820,90.800 183.600 C 90.800 183.380,89.821 183.200,88.624 183.200 C 87.427 183.200,86.336 183.020,86.200 182.800 C 86.064 182.580,84.613 182.400,82.976 182.400 C 81.259 182.400,80.000 182.231,80.000 182.000 C 80.000 181.743,76.133 181.600,69.200 181.600 C 62.267 181.600,58.400 181.743,58.400 182.000 M24.000 194.400 C 24.000 194.620,23.460 194.800,22.800 194.800 C 22.140 194.800,21.600 194.980,21.600 195.200 C 21.600 195.420,21.280 195.600,20.888 195.600 C 20.497 195.600,19.917 195.960,19.600 196.400 C 19.283 196.840,18.743 197.200,18.400 197.200 C 18.057 197.200,17.517 197.560,17.200 198.000 C 16.883 198.440,16.375 198.800,16.072 198.800 C 15.769 198.800,15.017 199.340,14.400 200.000 C 13.783 200.660,13.103 201.200,12.888 201.200 C 12.673 201.200,11.755 201.920,10.848 202.800 C 9.941 203.680,9.105 204.400,8.991 204.400 C 8.876 204.400,7.810 205.345,6.621 206.500 C 4.544 208.519,2.670 210.154,1.777 210.728 C -1.331 212.725,-0.350 222.400,2.960 222.400 C 3.312 222.400,3.600 222.580,3.600 222.800 C 3.600 224.138,8.472 223.046,10.296 221.300 C 10.813 220.805,11.365 220.400,11.522 220.400 C 11.680 220.400,13.409 218.870,15.365 217.000 C 17.321 215.130,19.092 213.600,19.300 213.600 C 19.509 213.600,20.183 213.060,20.800 212.400 C 21.417 211.740,22.092 211.200,22.301 211.200 C 22.510 211.200,23.227 210.679,23.893 210.042 C 24.559 209.405,25.486 208.763,25.952 208.615 C 26.419 208.467,26.800 208.178,26.800 207.973 C 26.800 207.768,27.035 207.600,27.322 207.600 C 28.097 207.600,30.800 204.993,30.800 204.246 C 30.800 203.891,30.980 203.600,31.200 203.600 C 31.422 203.600,31.600 202.533,31.600 201.200 C 31.600 199.867,31.422 198.800,31.200 198.800 C 30.980 198.800,30.800 198.512,30.800 198.160 C 30.800 197.131,28.207 194.800,27.064 194.800 C 26.505 194.800,25.936 194.620,25.800 194.400 C 25.664 194.180,25.203 194.000,24.776 194.000 C 24.349 194.000,24.000 194.180,24.000 194.400 M70.000 216.400 C 70.000 216.643,68.208 216.800,65.424 216.800 C 62.804 216.800,60.742 216.971,60.600 217.200 C 60.464 217.420,59.553 217.600,58.576 217.600 C 57.599 217.600,56.800 217.780,56.800 218.000 C 56.800 218.220,56.080 218.400,55.200 218.400 C 54.320 218.400,53.600 218.580,53.600 218.800 C 53.600 219.020,53.060 219.200,52.400 219.200 C 51.740 219.200,51.200 219.380,51.200 219.600 C 51.200 219.820,50.660 220.000,50.000 220.000 C 49.340 220.000,48.800 220.180,48.800 220.400 C 48.800 220.620,48.260 220.800,47.600 220.800 C 46.940 220.800,46.400 220.980,46.400 221.200 C 46.400 221.420,46.040 221.600,45.600 221.600 C 45.160 221.600,44.800 221.780,44.800 222.000 C 44.800 222.220,44.451 222.400,44.024 222.400 C 43.597 222.400,43.136 222.580,43.000 222.800 C 42.864 223.020,42.403 223.200,41.976 223.200 C 41.549 223.200,41.200 223.380,41.200 223.600 C 41.200 223.820,40.840 224.000,40.400 224.000 C 39.960 224.000,39.600 224.180,39.600 224.400 C 39.600 224.620,39.262 224.800,38.849 224.800 C 38.436 224.800,37.874 225.070,37.600 225.400 C 37.326 225.730,36.764 226.000,36.351 226.000 C 35.938 226.000,35.600 226.159,35.600 226.353 C 35.600 226.548,35.285 226.807,34.900 226.929 C 34.051 227.198,32.026 228.414,31.284 229.100 C 30.986 229.375,30.584 229.600,30.390 229.600 C 30.195 229.600,29.586 230.050,29.036 230.600 C 28.486 231.150,27.882 231.600,27.693 231.600 C 27.504 231.600,26.832 232.140,26.200 232.800 C 25.568 233.460,24.902 234.000,24.721 234.000 C 24.368 234.000,15.200 243.051,15.200 243.399 C 15.200 243.514,14.660 244.172,14.000 244.863 C 13.340 245.554,12.800 246.362,12.800 246.659 C 12.800 246.957,12.650 247.200,12.468 247.200 C 12.285 247.200,11.880 247.695,11.568 248.300 C 11.256 248.905,10.890 249.490,10.753 249.600 C 10.286 249.977,8.400 253.973,8.400 254.587 C 8.400 254.924,8.220 255.200,8.000 255.200 C 7.780 255.200,7.600 255.560,7.600 256.000 C 7.600 256.440,7.420 256.800,7.200 256.800 C 6.980 256.800,6.800 257.239,6.800 257.776 C 6.800 258.313,6.620 258.864,6.400 259.000 C 6.180 259.136,6.000 259.687,6.000 260.224 C 6.000 260.761,5.820 261.200,5.600 261.200 C 5.380 261.200,5.200 261.920,5.200 262.800 C 5.200 263.680,5.020 264.400,4.800 264.400 C 4.575 264.400,4.400 265.525,4.400 266.976 C 4.400 268.393,4.220 269.664,4.000 269.800 C 3.779 269.937,3.600 271.737,3.600 273.824 C 3.600 276.075,3.762 277.600,4.000 277.600 C 4.229 277.600,4.400 278.800,4.400 280.400 C 4.400 282.000,4.571 283.200,4.800 283.200 C 5.020 283.200,5.200 283.920,5.200 284.800 C 5.200 285.680,5.380 286.400,5.600 286.400 C 5.820 286.400,6.000 286.940,6.000 287.600 C 6.000 288.260,6.180 288.800,6.400 288.800 C 6.620 288.800,6.800 289.149,6.800 289.576 C 6.800 290.003,6.980 290.464,7.200 290.600 C 7.420 290.736,7.600 291.182,7.600 291.590 C 7.600 291.999,7.742 292.393,7.916 292.467 C 8.090 292.540,8.716 293.534,9.307 294.675 C 10.278 296.550,12.591 299.409,14.540 301.142 C 14.947 301.504,16.100 302.565,17.103 303.500 C 18.107 304.435,19.169 305.200,19.464 305.200 C 19.759 305.200,20.000 305.343,20.000 305.519 C 20.000 305.943,25.654 308.800,26.494 308.800 C 26.856 308.800,27.264 308.980,27.400 309.200 C 27.536 309.420,28.177 309.600,28.824 309.600 C 29.471 309.600,30.000 309.780,30.000 310.000 C 30.000 310.220,30.720 310.400,31.600 310.400 C 32.480 310.400,33.200 310.580,33.200 310.800 C 33.200 311.051,35.800 311.200,40.200 311.200 C 44.600 311.200,47.200 311.051,47.200 310.800 C 47.200 310.580,47.920 310.400,48.800 310.400 C 49.680 310.400,50.400 310.220,50.400 310.000 C 50.400 309.780,50.940 309.600,51.600 309.600 C 52.260 309.600,52.800 309.420,52.800 309.200 C 52.800 308.980,53.097 308.800,53.460 308.800 C 54.404 308.800,58.480 306.771,59.247 305.919 C 59.603 305.523,60.077 305.200,60.300 305.200 C 60.920 305.200,66.000 300.137,66.000 299.519 C 66.000 299.221,66.360 298.717,66.800 298.400 C 67.240 298.083,67.600 297.503,67.600 297.112 C 67.600 296.720,67.780 296.400,68.000 296.400 C 68.220 296.400,68.400 296.040,68.400 295.600 C 68.400 295.160,68.580 294.800,68.800 294.800 C 69.020 294.800,69.200 294.440,69.200 294.000 C 69.200 293.560,69.380 293.200,69.600 293.200 C 69.820 293.200,70.000 292.761,70.000 292.224 C 70.000 291.687,70.180 291.136,70.400 291.000 C 70.620 290.864,70.800 290.144,70.800 289.400 C 70.800 288.656,70.980 287.936,71.200 287.800 C 71.433 287.656,71.600 285.404,71.600 282.400 C 71.600 279.396,71.433 277.144,71.200 277.000 C 70.980 276.864,70.800 276.133,70.800 275.376 C 70.800 274.619,70.620 274.000,70.400 274.000 C 70.180 274.000,70.000 273.460,70.000 272.800 C 70.000 272.140,69.820 271.600,69.600 271.600 C 69.380 271.600,69.200 271.240,69.200 270.800 C 69.200 270.360,69.020 270.000,68.800 270.000 C 68.580 270.000,68.400 269.728,68.400 269.396 C 68.400 269.064,67.860 268.228,67.200 267.537 C 66.540 266.846,66.000 266.110,66.000 265.901 C 66.000 265.442,63.655 263.200,63.176 263.200 C 62.989 263.200,62.386 262.750,61.836 262.200 C 61.286 261.650,60.558 261.200,60.218 261.200 C 59.878 261.200,59.600 261.052,59.600 260.871 C 59.600 260.322,55.616 258.704,53.742 258.492 C 52.774 258.383,51.885 258.138,51.767 257.947 C 51.461 257.451,42.000 257.503,42.000 258.000 C 42.000 258.220,41.415 258.410,40.700 258.422 C 39.094 258.450,36.431 259.504,34.944 260.701 C 34.329 261.195,33.685 261.600,33.513 261.600 C 33.341 261.600,33.200 261.870,33.200 262.200 C 33.200 262.530,33.020 262.800,32.800 262.800 C 32.580 262.800,32.400 263.252,32.400 263.805 C 32.400 264.358,32.177 265.168,31.904 265.605 C 31.509 266.238,31.509 266.562,31.904 267.195 C 32.177 267.632,32.400 268.370,32.400 268.835 C 32.400 269.824,34.828 272.400,35.760 272.400 C 36.112 272.400,36.400 272.580,36.400 272.800 C 36.400 273.370,40.034 273.296,41.317 272.700 C 41.909 272.425,42.395 272.065,42.397 271.900 C 42.399 271.735,42.749 271.600,43.176 271.600 C 43.603 271.600,44.064 271.420,44.200 271.200 C 44.336 270.980,45.607 270.800,47.024 270.800 C 48.475 270.800,49.600 270.975,49.600 271.200 C 49.600 271.420,49.890 271.600,50.246 271.600 C 51.792 271.600,56.800 275.189,56.800 276.297 C 56.800 276.574,56.980 276.800,57.200 276.800 C 57.420 276.800,57.600 277.340,57.600 278.000 C 57.600 278.660,57.780 279.200,58.000 279.200 C 58.233 279.200,58.400 280.533,58.400 282.400 C 58.400 284.267,58.233 285.600,58.000 285.600 C 57.780 285.600,57.600 286.140,57.600 286.800 C 57.600 287.460,57.420 288.000,57.200 288.000 C 56.980 288.000,56.800 288.360,56.800 288.800 C 56.800 289.240,56.620 289.600,56.400 289.600 C 56.180 289.600,55.998 289.915,55.996 290.300 C 55.994 290.685,55.420 291.450,54.720 292.000 C 54.020 292.550,53.040 293.405,52.542 293.900 C 52.044 294.395,51.358 294.800,51.018 294.800 C 50.678 294.800,50.399 294.935,50.397 295.100 C 50.393 295.459,48.456 296.400,47.720 296.400 C 47.434 296.400,47.200 296.580,47.200 296.800 C 47.200 297.020,46.660 297.200,46.000 297.200 C 45.340 297.200,44.800 297.380,44.800 297.600 C 44.800 297.843,43.000 298.000,40.200 298.000 C 37.400 298.000,35.600 297.843,35.600 297.600 C 35.600 297.380,35.071 297.200,34.424 297.200 C 33.777 297.200,33.136 297.020,33.000 296.800 C 32.864 296.580,32.313 296.400,31.776 296.400 C 31.239 296.400,30.800 296.220,30.800 296.000 C 30.800 295.780,30.440 295.600,30.000 295.600 C 29.560 295.600,29.200 295.449,29.200 295.264 C 29.200 295.080,28.743 294.720,28.185 294.466 C 26.002 293.471,20.800 288.222,20.800 287.014 C 20.800 286.676,20.620 286.400,20.400 286.400 C 20.180 286.400,20.000 286.040,20.000 285.600 C 20.000 285.160,19.820 284.800,19.600 284.800 C 19.380 284.800,19.200 284.440,19.200 284.000 C 19.200 283.560,19.020 283.200,18.800 283.200 C 18.580 283.200,18.400 282.671,18.400 282.024 C 18.400 281.377,18.220 280.736,18.000 280.600 C 17.780 280.464,17.600 279.463,17.600 278.376 C 17.600 277.289,17.420 276.400,17.200 276.400 C 16.971 276.400,16.800 275.200,16.800 273.600 C 16.800 272.000,16.971 270.800,17.200 270.800 C 17.420 270.800,17.600 269.900,17.600 268.800 C 17.600 267.700,17.780 266.800,18.000 266.800 C 18.220 266.800,18.400 266.260,18.400 265.600 C 18.400 264.940,18.580 264.400,18.800 264.400 C 19.020 264.400,19.200 263.961,19.200 263.424 C 19.200 262.887,19.380 262.336,19.600 262.200 C 19.820 262.064,20.000 261.603,20.000 261.176 C 20.000 260.749,20.180 260.400,20.400 260.400 C 20.620 260.400,20.800 260.040,20.800 259.600 C 20.800 259.160,20.980 258.800,21.200 258.800 C 21.420 258.800,21.600 258.558,21.600 258.262 C 21.600 257.966,21.960 257.398,22.400 257.000 C 22.840 256.602,23.200 256.065,23.200 255.808 C 23.200 255.550,23.650 254.917,24.200 254.400 C 24.750 253.883,25.200 253.220,25.200 252.926 C 25.200 252.284,33.399 244.000,34.035 244.000 C 34.279 244.000,34.983 243.460,35.600 242.800 C 36.217 242.140,36.918 241.600,37.160 241.600 C 37.401 241.600,38.475 240.970,39.547 240.200 C 40.619 239.430,41.699 238.800,41.948 238.800 C 42.196 238.800,42.401 238.665,42.403 238.500 C 42.405 238.335,42.810 238.001,43.303 237.759 C 43.796 237.516,45.253 236.751,46.541 236.059 C 47.828 235.366,49.223 234.800,49.641 234.800 C 50.058 234.800,50.400 234.620,50.400 234.400 C 50.400 234.180,50.760 234.000,51.200 234.000 C 51.640 234.000,52.000 233.820,52.000 233.600 C 52.000 233.380,52.439 233.200,52.976 233.200 C 53.513 233.200,54.064 233.020,54.200 232.800 C 54.336 232.580,54.887 232.400,55.424 232.400 C 55.961 232.400,56.400 232.220,56.400 232.000 C 56.400 231.780,56.940 231.600,57.600 231.600 C 58.260 231.600,58.800 231.420,58.800 231.200 C 58.800 230.980,59.509 230.800,60.376 230.800 C 61.243 230.800,62.064 230.620,62.200 230.400 C 62.336 230.180,63.866 230.000,65.600 230.000 C 67.334 230.000,68.864 229.820,69.000 229.600 C 69.136 229.380,70.137 229.200,71.224 229.200 C 72.311 229.200,73.200 229.380,73.200 229.600 C 73.200 229.837,74.667 230.000,76.800 230.000 C 78.933 230.000,80.400 230.163,80.400 230.400 C 80.400 230.620,81.289 230.800,82.376 230.800 C 83.463 230.800,84.464 230.980,84.600 231.200 C 84.736 231.420,85.557 231.600,86.424 231.600 C 87.291 231.600,88.000 231.780,88.000 232.000 C 88.000 232.220,88.540 232.400,89.200 232.400 C 89.860 232.400,90.400 232.580,90.400 232.800 C 90.400 233.020,90.940 233.200,91.600 233.200 C 92.260 233.200,92.800 233.380,92.800 233.600 C 92.800 233.820,93.340 234.000,94.000 234.000 C 94.660 234.000,95.200 234.180,95.200 234.400 C 95.200 234.620,95.639 234.800,96.176 234.800 C 96.713 234.800,97.264 234.980,97.400 235.200 C 97.536 235.420,98.087 235.600,98.624 235.600 C 99.161 235.600,99.600 235.780,99.600 236.000 C 99.600 236.220,99.949 236.400,100.376 236.400 C 100.803 236.400,101.264 236.580,101.400 236.800 C 101.536 237.020,102.087 237.200,102.624 237.200 C 103.161 237.200,103.600 237.380,103.600 237.600 C 103.600 237.820,103.960 238.000,104.400 238.000 C 104.840 238.000,105.200 238.180,105.200 238.400 C 105.200 238.620,105.475 238.800,105.811 238.800 C 106.148 238.800,107.750 239.430,109.373 240.200 C 110.996 240.970,112.790 241.600,113.362 241.600 C 113.933 241.600,114.400 241.780,114.400 242.000 C 114.400 242.220,115.120 242.400,116.000 242.400 C 116.880 242.400,117.600 242.220,117.600 242.000 C 117.600 241.780,118.127 241.600,118.771 241.600 C 120.989 241.600,122.400 239.231,122.400 235.509 C 122.400 233.799,122.263 232.400,122.095 232.400 C 121.927 232.400,121.612 231.995,121.395 231.500 C 121.178 231.005,120.595 230.422,120.100 230.205 C 119.605 229.988,119.200 229.673,119.200 229.505 C 119.200 229.337,118.840 229.200,118.400 229.200 C 117.960 229.200,117.600 229.020,117.600 228.800 C 117.600 228.580,117.370 228.400,117.090 228.400 C 116.809 228.400,115.504 227.866,114.190 227.213 C 112.875 226.559,111.596 226.019,111.346 226.013 C 111.096 226.006,110.376 225.731,109.746 225.402 C 109.116 225.074,108.285 224.804,107.900 224.802 C 107.515 224.801,107.200 224.620,107.200 224.400 C 107.200 224.180,106.750 224.000,106.200 224.000 C 105.650 224.000,105.200 223.820,105.200 223.600 C 105.200 223.380,104.660 223.200,104.000 223.200 C 103.340 223.200,102.800 223.020,102.800 222.800 C 102.800 222.580,102.451 222.400,102.024 222.400 C 101.597 222.400,101.136 222.220,101.000 222.000 C 100.864 221.780,100.324 221.600,99.800 221.600 C 99.276 221.600,98.736 221.420,98.600 221.200 C 98.464 220.980,97.733 220.800,96.976 220.800 C 96.219 220.800,95.600 220.620,95.600 220.400 C 95.600 220.180,95.060 220.000,94.400 220.000 C 93.740 220.000,93.200 219.820,93.200 219.600 C 93.200 219.380,92.581 219.200,91.824 219.200 C 91.067 219.200,90.336 219.020,90.200 218.800 C 90.064 218.580,89.243 218.400,88.376 218.400 C 87.509 218.400,86.800 218.220,86.800 218.000 C 86.800 217.780,85.821 217.600,84.624 217.600 C 83.427 217.600,82.336 217.420,82.200 217.200 C 82.058 216.970,79.937 216.800,77.200 216.800 C 74.463 216.800,72.342 216.630,72.200 216.400 C 72.064 216.180,71.513 216.000,70.976 216.000 C 70.439 216.000,70.000 216.180,70.000 216.400 M173.200 258.000 C 173.200 258.220,172.917 258.400,172.571 258.400 C 171.853 258.400,170.800 259.334,170.800 259.971 C 170.800 260.207,170.620 260.400,170.400 260.400 C 170.167 260.400,170.000 261.733,170.000 263.600 C 170.000 265.467,170.167 266.800,170.400 266.800 C 170.620 266.800,170.800 267.083,170.800 267.429 C 170.800 267.774,174.310 271.553,178.600 275.825 C 185.775 282.971,186.400 283.706,186.400 284.997 C 186.400 285.769,186.220 286.400,186.000 286.400 C 185.780 286.400,185.600 287.120,185.600 288.000 C 185.600 288.880,185.420 289.600,185.200 289.600 C 184.980 289.600,184.800 290.320,184.800 291.200 C 184.800 292.080,184.620 292.800,184.400 292.800 C 184.180 292.800,184.000 293.790,184.000 295.000 C 184.000 296.210,183.820 297.200,183.600 297.200 C 183.344 297.200,183.200 300.925,183.200 307.576 C 183.200 314.063,183.350 318.045,183.600 318.200 C 183.820 318.336,184.000 319.326,184.000 320.400 C 184.000 321.474,184.180 322.464,184.400 322.600 C 184.620 322.736,184.800 323.557,184.800 324.424 C 184.800 325.291,184.980 326.000,185.200 326.000 C 185.420 326.000,185.600 326.720,185.600 327.600 C 185.600 328.480,185.780 329.200,186.000 329.200 C 186.220 329.200,186.400 329.740,186.400 330.400 C 186.400 331.060,186.580 331.600,186.800 331.600 C 187.020 331.600,187.200 332.039,187.200 332.576 C 187.200 333.113,187.380 333.664,187.600 333.800 C 187.820 333.936,188.000 334.397,188.000 334.824 C 188.000 335.251,188.180 335.600,188.400 335.600 C 188.620 335.600,188.800 335.949,188.800 336.376 C 188.800 336.803,188.980 337.264,189.200 337.400 C 189.420 337.536,189.600 337.997,189.600 338.424 C 189.600 338.851,189.780 339.200,190.000 339.200 C 190.220 339.200,190.400 339.560,190.400 340.000 C 190.400 340.440,190.580 340.800,190.800 340.800 C 191.020 340.800,191.200 341.160,191.200 341.600 C 191.200 342.040,191.335 342.400,191.501 342.400 C 191.666 342.400,192.311 343.480,192.935 344.800 C 193.558 346.120,194.233 347.200,194.434 347.200 C 194.635 347.200,194.800 347.436,194.800 347.725 C 194.800 348.013,195.160 348.636,195.600 349.108 C 196.040 349.580,196.400 350.132,196.400 350.335 C 196.400 350.538,197.120 351.445,198.000 352.352 C 198.880 353.259,199.600 354.146,199.600 354.324 C 199.600 354.664,207.890 362.800,208.236 362.800 C 208.346 362.800,208.856 363.205,209.368 363.700 C 210.893 365.174,211.984 366.000,212.405 366.000 C 212.622 366.000,212.800 366.150,212.800 366.332 C 212.800 366.515,213.295 366.920,213.900 367.232 C 214.505 367.545,215.349 368.115,215.775 368.500 C 216.202 368.885,216.787 369.200,217.075 369.200 C 217.364 369.200,217.600 369.380,217.600 369.600 C 217.600 369.820,217.960 370.000,218.400 370.000 C 218.840 370.000,219.200 370.180,219.200 370.400 C 219.200 370.620,219.560 370.800,220.000 370.800 C 220.440 370.800,220.800 370.980,220.800 371.200 C 220.800 371.420,221.160 371.600,221.600 371.600 C 222.040 371.600,222.400 371.780,222.400 372.000 C 222.400 372.220,222.760 372.400,223.200 372.400 C 223.640 372.400,224.000 372.580,224.000 372.800 C 224.000 373.020,224.345 373.200,224.767 373.200 C 225.188 373.200,225.593 373.335,225.667 373.500 C 225.857 373.929,229.630 375.204,230.700 375.202 C 231.195 375.201,231.600 375.380,231.600 375.600 C 231.600 375.820,232.140 376.000,232.800 376.000 C 233.460 376.000,234.000 376.180,234.000 376.400 C 234.000 376.620,234.720 376.800,235.600 376.800 C 236.480 376.800,237.200 376.980,237.200 377.200 C 237.200 377.420,237.920 377.600,238.800 377.600 C 239.680 377.600,240.400 377.780,240.400 378.000 C 240.400 378.225,241.525 378.400,242.976 378.400 C 244.393 378.400,245.664 378.580,245.800 378.800 C 245.953 379.047,249.404 379.200,254.824 379.200 C 260.408 379.200,263.600 379.055,263.600 378.800 C 263.600 378.578,264.667 378.400,266.000 378.400 C 267.333 378.400,268.400 378.222,268.400 378.000 C 268.400 377.780,269.199 377.600,270.176 377.600 C 271.153 377.600,272.064 377.420,272.200 377.200 C 272.336 376.980,272.966 376.800,273.600 376.800 C 274.234 376.800,274.864 376.620,275.000 376.400 C 275.136 376.180,275.777 376.000,276.424 376.000 C 277.071 376.000,277.600 375.836,277.600 375.635 C 277.600 375.434,278.320 375.149,279.200 375.000 C 280.080 374.851,280.800 374.566,280.800 374.365 C 280.800 374.164,281.046 374.000,281.346 374.000 C 282.122 374.000,286.400 369.797,286.400 369.035 C 286.400 368.686,286.536 368.400,286.702 368.400 C 287.289 368.400,289.600 362.095,289.600 360.495 C 289.600 360.029,289.761 359.548,289.958 359.426 C 290.315 359.205,290.421 358.676,291.164 353.400 C 292.043 347.162,291.607 331.650,290.399 326.200 C 290.155 325.100,289.856 323.613,289.734 322.896 C 289.612 322.179,289.351 321.494,289.156 321.373 C 288.960 321.252,288.800 320.724,288.800 320.200 C 288.800 319.676,288.620 319.136,288.400 319.000 C 288.180 318.864,288.000 318.313,288.000 317.776 C 288.000 317.239,287.820 316.800,287.600 316.800 C 287.380 316.800,287.200 316.260,287.200 315.600 C 287.200 314.940,287.020 314.400,286.800 314.400 C 286.580 314.400,286.400 314.040,286.400 313.600 C 286.400 313.160,286.220 312.800,286.000 312.800 C 285.780 312.800,285.600 312.350,285.600 311.800 C 285.600 311.250,285.420 310.800,285.200 310.800 C 284.980 310.800,284.800 310.440,284.800 310.000 C 284.800 309.560,284.620 309.200,284.400 309.200 C 284.180 309.200,284.000 308.922,284.000 308.583 C 284.000 308.244,283.640 307.580,283.200 307.108 C 282.760 306.636,282.400 306.013,282.400 305.725 C 282.400 305.436,282.220 305.200,282.000 305.200 C 281.780 305.200,281.600 304.880,281.600 304.488 C 281.600 304.097,281.240 303.517,280.800 303.200 C 280.360 302.883,280.000 302.343,280.000 302.000 C 280.000 301.657,279.640 301.117,279.200 300.800 C 278.760 300.483,278.400 299.975,278.400 299.672 C 278.400 299.369,277.860 298.617,277.200 298.000 C 276.540 297.383,276.000 296.681,276.000 296.440 C 276.000 296.198,275.820 296.000,275.600 296.000 C 275.380 296.000,275.200 295.779,275.200 295.509 C 275.200 294.920,266.538 286.400,265.939 286.400 C 265.709 286.400,265.017 285.860,264.400 285.200 C 263.783 284.540,263.126 284.000,262.940 283.999 C 262.753 283.999,261.970 283.459,261.200 282.800 C 260.430 282.141,259.575 281.601,259.300 281.601 C 259.025 281.600,258.800 281.420,258.800 281.200 C 258.800 280.980,258.607 280.800,258.372 280.800 C 258.137 280.800,257.192 280.292,256.272 279.672 C 254.499 278.475,249.510 276.000,248.871 276.000 C 248.662 276.000,247.976 275.731,247.346 275.402 C 246.716 275.074,245.705 274.804,245.100 274.802 C 244.495 274.801,244.000 274.620,244.000 274.400 C 244.000 274.180,243.460 274.000,242.800 274.000 C 242.140 274.000,241.600 273.820,241.600 273.600 C 241.600 273.380,241.071 273.200,240.424 273.200 C 239.777 273.200,239.136 273.020,239.000 272.800 C 238.864 272.580,238.043 272.400,237.176 272.400 C 236.309 272.400,235.600 272.220,235.600 272.000 C 235.600 271.780,234.700 271.600,233.600 271.600 C 232.500 271.600,231.600 271.420,231.600 271.200 C 231.600 270.956,229.760 270.800,226.880 270.800 C 224.014 270.800,221.989 270.629,221.725 270.365 C 221.412 270.052,221.215 270.052,221.022 270.365 C 220.848 270.646,218.704 270.800,214.976 270.800 C 211.392 270.800,209.200 270.952,209.200 271.200 C 209.200 271.420,208.300 271.600,207.200 271.600 C 206.100 271.600,205.200 271.780,205.200 272.000 C 205.200 272.220,204.401 272.400,203.424 272.400 C 202.447 272.400,201.536 272.580,201.400 272.800 C 201.264 273.020,200.623 273.200,199.976 273.200 C 199.329 273.200,198.800 273.380,198.800 273.600 C 198.800 275.070,195.718 273.863,193.600 271.564 C 190.642 268.352,181.996 259.621,180.663 258.500 C 179.514 257.532,173.200 257.109,173.200 258.000 M230.400 283.384 C 237.193 284.705,243.892 286.962,248.176 289.373 C 249.069 289.876,250.520 290.693,251.400 291.190 C 253.019 292.104,255.233 293.577,255.600 293.983 C 255.710 294.105,256.520 294.731,257.400 295.375 C 264.157 300.318,271.995 310.746,275.158 319.000 C 275.664 320.320,276.222 321.760,276.399 322.200 C 277.006 323.715,277.525 325.404,277.934 327.200 C 278.159 328.190,278.531 329.810,278.759 330.800 C 280.478 338.258,279.650 355.910,277.563 356.312 C 276.972 356.426,205.600 285.509,205.600 284.808 C 205.600 284.499,207.544 283.918,210.800 283.253 C 213.820 282.637,227.012 282.725,230.400 283.384 M233.590 328.990 C 258.338 353.739,269.251 364.909,268.964 365.196 C 267.570 366.590,254.003 367.645,247.800 366.842 C 232.280 364.834,217.244 356.631,208.323 345.304 C 202.619 338.062,198.976 330.344,196.427 320.100 C 194.596 312.742,195.264 293.200,197.346 293.200 C 197.597 293.200,213.907 309.306,233.590 328.990 " stroke="none" fill="#040404" fill-rule="evenodd"></path><path id="path2" d="M343.455 31.590 C 344.934 34.556,347.227 35.187,353.062 34.236 C 360.417 33.038,375.389 33.629,376.939 35.179 C 377.318 35.558,307.175 106.000,306.418 106.000 C 306.196 106.000,305.918 105.505,305.798 104.900 C 305.679 104.295,305.369 102.900,305.110 101.800 C 304.465 99.059,304.502 85.247,305.163 82.400 C 306.094 78.386,306.449 77.023,307.248 74.400 C 308.071 71.703,308.168 71.447,309.560 68.304 C 310.022 67.262,310.400 66.322,310.400 66.217 C 310.400 63.742,319.227 52.544,325.467 47.104 C 330.535 42.686,331.144 41.292,329.794 37.200 L 329.201 35.400 329.464 37.600 C 330.049 42.505,329.952 42.676,323.454 48.149 C 317.469 53.190,311.161 62.362,308.013 70.600 C 307.845 71.040,307.528 71.850,307.309 72.400 C 306.731 73.853,306.183 75.736,305.158 79.800 C 303.368 86.895,304.123 106.800,306.182 106.800 C 306.878 106.800,378.055 35.566,377.881 35.043 C 377.308 33.323,362.353 32.264,355.200 33.438 C 347.227 34.746,345.729 34.498,344.077 31.594 C 343.196 30.046,342.683 30.043,343.455 31.590 M350.016 79.384 C 330.336 99.065,314.343 115.276,314.476 115.409 C 315.099 116.033,319.474 116.833,324.092 117.168 C 354.598 119.383,379.460 101.181,387.151 71.000 C 388.962 63.894,388.297 43.600,386.253 43.600 C 386.003 43.600,369.696 59.703,350.016 79.384 M387.399 50.519 C 389.090 64.180,386.491 76.466,379.230 89.132 C 378.810 89.864,378.182 90.778,377.833 91.163 C 377.485 91.548,377.200 92.074,377.200 92.331 C 377.200 92.589,377.059 92.800,376.886 92.800 C 376.714 92.800,376.228 93.385,375.808 94.100 C 374.056 97.076,363.934 106.269,360.420 108.075 C 359.859 108.363,359.310 108.693,359.200 108.809 C 358.867 109.159,352.324 112.274,350.400 112.998 C 346.934 114.303,345.879 114.603,339.600 116.075 C 334.973 117.159,320.158 116.704,315.619 115.338 C 315.253 115.228,328.148 102.053,350.613 79.587 C 381.392 48.806,386.228 44.123,386.492 44.837 C 386.660 45.291,387.068 47.848,387.399 50.519 M210.800 283.253 C 207.544 283.918,205.600 284.499,205.600 284.808 C 205.600 285.509,276.972 356.426,277.563 356.312 C 279.650 355.910,280.478 338.258,278.759 330.800 C 278.531 329.810,278.159 328.190,277.934 327.200 C 277.525 325.404,277.006 323.715,276.399 322.200 C 276.222 321.760,275.664 320.320,275.158 319.000 C 271.995 310.746,264.157 300.318,257.400 295.375 C 256.520 294.731,255.710 294.105,255.600 293.983 C 255.233 293.577,253.019 292.104,251.400 291.190 C 250.520 290.693,249.069 289.876,248.176 289.373 C 243.892 286.962,237.193 284.705,230.400 283.384 C 227.012 282.725,213.820 282.637,210.800 283.253 M230.800 283.916 C 231.570 284.121,233.190 284.511,234.400 284.781 C 235.610 285.052,237.680 285.629,239.000 286.063 C 254.830 291.271,268.032 303.419,274.360 318.600 C 275.094 320.360,275.853 322.113,276.047 322.495 C 276.241 322.877,276.400 323.541,276.400 323.971 C 276.400 324.401,276.560 324.852,276.756 324.973 C 276.951 325.094,277.212 325.779,277.334 326.496 C 277.456 327.213,277.748 328.700,277.984 329.800 C 279.540 337.059,279.246 353.329,277.520 355.480 C 277.203 355.876,209.513 288.840,206.870 285.513 C 205.417 283.684,225.022 282.376,230.800 283.916 M196.627 294.500 C 195.748 298.839,195.528 300.790,195.331 306.000 C 195.123 311.509,195.501 316.381,196.427 320.100 C 197.950 326.222,198.947 329.098,201.177 333.800 C 209.726 351.831,227.135 364.169,247.800 366.842 C 254.003 367.645,267.570 366.590,268.964 365.196 C 269.405 364.755,198.226 293.200,197.346 293.200 C 197.096 293.200,196.772 293.785,196.627 294.500 M233.183 329.248 C 257.941 353.983,268.338 364.622,268.041 364.919 C 266.888 366.072,250.335 366.878,245.800 366.002 C 242.318 365.329,236.729 363.992,235.800 363.610 C 235.360 363.429,234.370 363.055,233.600 362.780 C 224.021 359.351,211.136 349.476,206.880 342.300 C 206.521 341.695,206.086 341.200,205.914 341.200 C 205.741 341.200,205.600 341.003,205.600 340.762 C 205.600 340.521,205.255 339.839,204.833 339.246 C 198.547 330.418,194.462 313.321,196.001 302.277 C 196.728 297.057,197.324 294.000,197.615 294.000 C 197.773 294.000,213.778 309.862,233.183 329.248 " stroke="none" fill="#347244" fill-rule="evenodd"></path></g></svg>